<svg width="42" height="56" viewBox="0 0 42 56" fill="none" xmlns="http://www.w3.org/2000/svg">
<path d="M7.75425 29.918L30.5042 50.918C30.7668 51.1602 31.074 51.3021 31.3927 51.3282C31.7114 51.3543 32.0293 51.2636 32.3121 51.0661C32.5949 50.8685 32.8318 50.5716 32.9971 50.2074C33.1624 49.8432 33.2499 49.4257 33.25 49V7.00001C33.2502 6.57412 33.163 6.15628 32.9978 5.79177C32.8326 5.42725 32.5958 5.12997 32.3129 4.93214C32.03 4.73431 31.712 4.64348 31.3931 4.66949C31.0743 4.69549 30.7669 4.83735 30.5042 5.07968L7.75425 26.0797C7.52248 26.2953 7.33319 26.5825 7.20249 26.9166C7.07179 27.2507 7.00354 27.622 7.00354 27.9988C7.00354 28.3757 7.07179 28.747 7.20249 29.0811C7.33319 29.4152 7.52248 29.7023 7.75425 29.918V29.918Z" fill="#252323"/>
</svg>
