<svg width="60" height="60" viewBox="0 0 60 60" fill="none" xmlns="http://www.w3.org/2000/svg">
<path d="M30.3398 5.625C16.6312 5.43984 5.43984 16.6312 5.625 30.3398C5.80781 43.4871 16.5129 54.1922 29.6602 54.375C43.3711 54.5625 54.5602 43.3711 54.3727 29.6625C54.1922 16.5129 43.4871 5.80781 30.3398 5.625ZM45.1547 43.9746C45.108 44.0251 45.0508 44.0647 44.9871 44.0906C44.9234 44.1165 44.8548 44.128 44.7861 44.1245C44.7175 44.1209 44.6504 44.1023 44.5898 44.0699C44.5291 44.0375 44.4763 43.9922 44.4351 43.9371C43.387 42.5657 42.1033 41.3916 40.6441 40.4695C37.6605 38.5547 33.8801 37.5 30 37.5C26.1199 37.5 22.3395 38.5547 19.3559 40.4695C17.8967 41.3912 16.6131 42.5649 15.5648 43.9359C15.5237 43.991 15.4709 44.0363 15.4102 44.0687C15.3496 44.1011 15.2825 44.1197 15.2139 44.1233C15.1452 44.1269 15.0766 44.1153 15.0129 44.0894C14.9492 44.0635 14.892 44.0239 14.8453 43.9734C11.4066 40.2614 9.45878 35.4109 9.375 30.3516C9.18398 18.948 18.5414 9.40312 29.9496 9.375C41.3578 9.34687 50.625 18.6105 50.625 30C50.6289 35.1813 48.675 40.1728 45.1547 43.9746V43.9746Z" fill="#252323"/>
<path d="M30 16.875C27.6891 16.875 25.5996 17.741 24.1148 19.3148C22.6301 20.8887 21.8883 23.0648 22.0559 25.4004C22.3957 30 25.9594 33.75 30 33.75C34.0406 33.75 37.5973 30 37.9441 25.4016C38.1176 23.0883 37.3816 20.932 35.8723 19.3289C34.3816 17.7469 32.2957 16.875 30 16.875Z" fill="#252323"/>
</svg>
