<svg width="42" height="56" viewBox="0 0 42 56" fill="none" xmlns="http://www.w3.org/2000/svg">
<path d="M34.2458 29.918L11.4958 50.918C11.2332 51.1602 10.926 51.3021 10.6073 51.3282C10.2886 51.3543 9.97068 51.2636 9.68788 51.0661C9.40507 50.8685 9.16819 50.5716 9.00287 50.2074C8.83756 49.8432 8.75011 49.4257 8.75 49V7.00001C8.74979 6.57412 8.837 6.15628 9.00219 5.79177C9.16738 5.42725 9.40424 5.12997 9.6871 4.93214C9.96997 4.73431 10.288 4.64348 10.6069 4.66949C10.9257 4.69549 11.2331 4.83735 11.4958 5.07968L34.2458 26.0797C34.4775 26.2953 34.6668 26.5825 34.7975 26.9166C34.9282 27.2507 34.9965 27.622 34.9965 27.9988C34.9965 28.3757 34.9282 28.747 34.7975 29.0811C34.6668 29.4152 34.4775 29.7023 34.2458 29.918V29.918Z" fill="#252323"/>
</svg>
