<svg width="225" height="75" viewBox="0 0 225 75" fill="none" xmlns="http://www.w3.org/2000/svg">
<rect width="225" height="75" fill="white"/>
<rect x="0.5" y="74.5" width="74" height="224" transform="rotate(-90 0.5 74.5)" fill="white" stroke="white"/>
<path d="M22.048 28.8357C21.6781 28.8357 21.4589 28.8289 21.3904 28.8152C21.3219 28.8015 21.2877 28.7261 21.2877 28.5891C21.2877 28.2193 21.363 27.9933 21.5137 27.9111C21.5411 27.8974 22.7329 27.8905 25.0891 27.8905C27.4453 27.9042 28.7193 27.9248 28.911 27.9522C29.6782 28.0617 30.322 28.2535 30.8426 28.5275C31.3631 28.8015 31.733 29.1165 31.9522 29.4727C32.1713 29.8289 32.3152 30.1234 32.3837 30.3563C32.4522 30.5892 32.4933 30.822 32.507 31.0549C32.507 31.6714 32.3083 32.2467 31.9111 32.781C31.5138 33.3152 31.0549 33.7262 30.5343 34.0138C30.0138 34.3015 29.5549 34.5344 29.1576 34.7125C28.7604 34.8906 28.5001 34.9796 28.3768 34.9796L28.5206 35.0823C29.4384 35.6029 29.8973 36.3563 29.8973 37.3426C29.8973 37.4933 29.8631 37.9111 29.7946 38.5961C29.7261 39.281 29.6919 39.8427 29.6919 40.281V40.4659C29.6919 40.7125 29.6987 40.9043 29.7124 41.0413C29.7261 41.1783 29.8015 41.3016 29.9384 41.4112C30.0754 41.5207 30.2535 41.5824 30.4727 41.5961C30.8563 41.5961 31.1713 41.4454 31.4179 41.144C31.6645 40.8427 31.8426 40.5207 31.9522 40.1783C32.0207 39.9865 32.0754 39.87 32.1165 39.829C32.1576 39.7879 32.2604 39.7673 32.4248 39.7673C32.6987 39.7673 32.8357 39.8495 32.8357 40.0139C32.8357 40.2605 32.6713 40.6509 32.3426 41.1851C31.822 41.966 31.2056 42.3564 30.4932 42.3564H30.3083C29.4727 42.3564 28.7809 42.1851 28.233 41.8427C27.685 41.5002 27.3836 40.9659 27.3288 40.2399C27.3288 39.87 27.4316 39.2947 27.6371 38.5139C27.8425 37.733 27.9453 37.233 27.9453 37.0139C27.9453 36.3152 27.6508 35.8084 27.0617 35.4933C26.8562 35.3974 26.685 35.3426 26.548 35.3289C26.411 35.3152 25.9247 35.3015 25.0891 35.2878H23.6713L23.0137 37.9591C22.5617 39.7673 22.3356 40.6851 22.3356 40.7125C22.3356 40.7673 22.3425 40.8016 22.3562 40.8153C22.3699 40.829 22.4178 40.8564 22.5 40.8975C22.5822 40.9386 22.6987 40.9522 22.8494 40.9386C23 40.9249 23.2261 40.9386 23.5274 40.9796H24.1644C24.2466 41.0892 24.2877 41.1509 24.2877 41.1646C24.2877 41.1783 24.2672 41.3016 24.2261 41.5344C24.1713 41.7125 24.1028 41.8427 24.0206 41.9249H23.7124C23.2192 41.8975 22.322 41.8838 21.0206 41.8838C20.5548 41.8838 20.1233 41.8838 19.726 41.8838C19.3288 41.8838 19.0137 41.8838 18.7808 41.8838C18.548 41.8838 18.4041 41.8906 18.3493 41.9043C18.1164 41.9043 18 41.8427 18 41.7194C18 41.692 18.0206 41.5961 18.0616 41.4317C18.1301 41.1714 18.1986 41.0276 18.2671 41.0002C18.3219 40.9865 18.4247 40.9796 18.5753 40.9796H18.6986C19.0685 40.9796 19.4795 40.9591 19.9315 40.918C20.1233 40.8769 20.2534 40.7947 20.3219 40.6714C20.363 40.6166 20.8562 38.7125 21.8014 34.9591C22.7466 31.2056 23.2192 29.2261 23.2192 29.0207C23.2192 28.9248 22.8288 28.8631 22.048 28.8357ZM30.2672 30.5412C30.2672 30.1029 30.1234 29.733 29.8357 29.4316C29.548 29.1302 28.959 28.9385 28.0686 28.8563C28.0412 28.8563 27.8836 28.8563 27.596 28.8563C27.3083 28.8563 27.048 28.8494 26.8151 28.8357H26.3631C25.7192 28.8357 25.3494 28.9042 25.2535 29.0412C25.2398 29.0823 25.0069 29.9933 24.5548 31.7741C24.1028 33.5549 23.8768 34.4659 23.8768 34.507C23.8768 34.5207 24.3494 34.5275 25.2946 34.5275C26.3631 34.5138 27.0754 34.4659 27.4316 34.3837C28.3083 34.2467 28.9932 33.8426 29.4864 33.1714C29.7056 32.8563 29.8905 32.4453 30.0412 31.9385C30.1919 31.4316 30.2672 30.9659 30.2672 30.5412Z" fill="#252323" stroke="#252323" stroke-width="0.16"/>
<path d="M33.7193 38.4728C33.7193 37.692 33.8494 36.9796 34.1097 36.3358C34.37 35.6919 34.7056 35.1577 35.1166 34.733C35.5275 34.3084 35.9864 33.9522 36.4933 33.6645C37.0001 33.3769 37.4796 33.1645 37.9317 33.0275C38.3837 32.8905 38.8152 32.8289 39.2262 32.8426H39.2878C39.9043 32.8426 40.4385 32.9933 40.8906 33.2947C41.3426 33.596 41.5687 34.0412 41.5687 34.6303C41.5687 35.8632 40.8084 36.6714 39.2878 37.055C38.6166 37.233 37.6988 37.3289 36.5344 37.3426C36.0275 37.3426 35.7673 37.3563 35.7536 37.3837C35.7536 37.4111 35.7125 37.6509 35.6303 38.1029C35.5481 38.555 35.5001 38.9522 35.4864 39.2947C35.4864 39.9385 35.6303 40.4454 35.9179 40.8153C36.2056 41.1851 36.6371 41.3769 37.2125 41.3906C37.7878 41.4043 38.4248 41.2742 39.1234 41.0002C39.8221 40.7262 40.4522 40.2742 41.0139 39.644C41.1372 39.507 41.2194 39.4385 41.2604 39.4385C41.3152 39.4385 41.4043 39.5002 41.5276 39.6235C41.6509 39.7468 41.7194 39.8427 41.7331 39.9111C41.7468 39.9796 41.6851 40.0892 41.5481 40.2399C41.4111 40.3906 41.2057 40.5755 40.9317 40.7947C40.6577 41.0139 40.3426 41.2262 39.9865 41.4317C39.6303 41.6372 39.1988 41.8084 38.6919 41.9454C38.1851 42.0824 37.6645 42.1509 37.1303 42.1509C36.0481 42.1509 35.2125 41.7879 34.6234 41.0618C34.0344 40.3358 33.733 39.4728 33.7193 38.4728ZM40.5824 34.6714C40.5002 33.959 40.0344 33.6029 39.1851 33.6029C38.733 33.6029 38.3152 33.6988 37.9317 33.8906C37.5481 34.0823 37.2399 34.3152 37.007 34.5892C36.7741 34.8632 36.5755 35.144 36.4111 35.4317C36.2467 35.7193 36.1371 35.9659 36.0823 36.1714C36.0275 36.3769 35.9933 36.507 35.9796 36.5618C35.9796 36.5755 36.1166 36.5824 36.3906 36.5824C37.9385 36.5824 39.0207 36.418 39.6371 36.0892C40.2536 35.7604 40.5687 35.2878 40.5824 34.6714Z" fill="#252323" stroke="#252323" stroke-width="0.16"/>
<path d="M44.4249 36.7878C44.4249 35.8426 44.4933 34.9453 44.6303 34.096C44.7673 33.2467 44.9249 32.5138 45.1029 31.8974C45.281 31.2809 45.5344 30.6782 45.8632 30.0891C46.192 29.5001 46.4523 29.0412 46.644 28.7124C46.8358 28.3837 47.1235 28.0275 47.5071 27.6439C47.8906 27.2604 48.1167 27.0275 48.1852 26.9453C48.2536 26.8631 48.4249 26.7193 48.6989 26.5138H48.966H49.0482C49.24 26.5138 49.3358 26.5754 49.3358 26.6987C49.3358 26.7398 49.2194 26.8836 48.9865 27.1302C48.7536 27.3768 48.4728 27.7398 48.1441 28.2193C47.8153 28.6987 47.4797 29.2878 47.1372 29.9864C46.7947 30.685 46.5071 31.6303 46.2742 32.822C46.0413 34.0138 45.9249 35.3358 45.9249 36.7878C45.9249 38.2399 46.0413 39.555 46.2742 40.7331C46.5071 41.9112 46.7879 42.8632 47.1167 43.5892C47.4454 44.3153 47.781 44.9043 48.1235 45.3564C48.466 45.8084 48.7536 46.1715 48.9865 46.4454C49.2194 46.7194 49.3358 46.8632 49.3358 46.8769C49.3358 47.0002 49.2331 47.0619 49.0276 47.0619H48.966H48.6989L48.1235 46.5687C46.8358 45.4043 45.8975 43.9523 45.3084 42.2125C44.7194 40.4728 44.4249 38.6646 44.4249 36.7878Z" fill="#252323" stroke="#252323" stroke-width="0.16"/>
<path d="M51.6783 46.3633C51.2263 46.3633 50.9865 46.1578 50.9591 45.7468C50.9591 45.6098 51.3016 44.1578 51.9865 41.3906C52.6715 38.6235 53.0414 37.1988 53.0961 37.1166C53.3153 36.3632 53.692 35.6303 54.2263 34.918C55.1852 33.7399 56.2743 33.0549 57.4934 32.8632C57.5208 32.8632 57.5756 32.8632 57.6578 32.8632C57.74 32.8632 57.8085 32.8563 57.8633 32.8426C58.8633 32.8426 59.6304 33.1714 60.1647 33.8289C60.6989 34.4865 60.9661 35.2947 60.9661 36.2536C60.9661 37.0344 60.8017 37.7947 60.4729 38.5344C60.1441 39.2742 59.7263 39.8974 59.2195 40.4043C58.7126 40.9112 58.1647 41.329 57.5756 41.6577C56.9866 41.9865 56.4455 42.144 55.9523 42.1303H55.7263H55.5825C54.8838 42.1303 54.3153 41.8221 53.877 41.2057L53.7742 41.0824L53.2194 43.3838C52.877 44.7126 52.6783 45.466 52.6235 45.6441C52.5687 45.8222 52.4866 45.966 52.377 46.0756C52.1578 46.2674 51.9249 46.3633 51.6783 46.3633ZM59.1989 35.3084C59.1989 34.8015 59.0825 34.3906 58.8496 34.0755C58.6167 33.7604 58.2743 33.6029 57.8222 33.6029C57.3428 33.6029 56.8633 33.8015 56.3838 34.1988C55.9044 34.596 55.5208 35.1166 55.2331 35.7604C55.0414 36.1851 54.7811 37.0755 54.4523 38.4317L54.103 39.829C54.3359 40.8701 54.9112 41.3906 55.829 41.3906C56.3496 41.3906 56.8564 41.144 57.3496 40.6509C57.8017 40.2399 58.1784 39.5824 58.4797 38.6783C58.7811 37.7741 58.9798 37.0344 59.0756 36.4591C59.1715 35.8837 59.2126 35.5002 59.1989 35.3084Z" fill="#252323" stroke="#252323" stroke-width="0.16"/>
<path d="M62.7127 41.2057C62.7127 41.2057 62.7127 41.0344 62.7127 40.692C62.7127 40.3495 62.8223 40.055 63.0414 39.8084C63.2606 39.5618 63.5551 39.4385 63.925 39.4385C64.3086 39.4385 64.651 39.6098 64.9524 39.9522C65.2538 40.2947 65.4113 40.8975 65.425 41.7605C65.425 42.2399 65.3634 42.7057 65.2401 43.1577C65.1168 43.6098 64.973 44.0002 64.8086 44.329C64.6442 44.6578 64.4661 44.9386 64.2743 45.1715C64.0825 45.4043 63.9181 45.5893 63.7812 45.7263C63.6442 45.8632 63.5551 45.9249 63.514 45.9112C63.4592 45.9112 63.3702 45.8495 63.2469 45.7263C63.1236 45.603 63.062 45.5139 63.062 45.4591C63.062 45.4043 63.1373 45.2947 63.288 45.1304C63.4387 44.966 63.6099 44.7605 63.8017 44.5139C63.9935 44.2673 64.1716 43.9249 64.336 43.4865C64.5003 43.0482 64.6099 42.5481 64.6647 41.9865V41.7399L64.6442 41.7605C64.6168 41.7742 64.5825 41.7879 64.5414 41.8016C64.5003 41.8153 64.4592 41.8358 64.4182 41.8632C64.3771 41.8906 64.3154 41.9043 64.2332 41.9043C64.151 41.9043 64.0688 41.9112 63.9866 41.9249C63.6168 41.9249 63.3154 41.8084 63.0825 41.5755L62.7127 41.2057Z" fill="#252323" stroke="#252323" stroke-width="0.16"/>
<path d="M70.6792 36.0276C70.6792 35.918 70.7408 35.7056 70.8641 35.3906C70.9874 35.0755 71.1586 34.7193 71.3778 34.3221C71.597 33.9248 71.8983 33.5823 72.2819 33.2947C72.6655 33.007 73.0696 32.8563 73.4942 32.8426C74.1244 32.8426 74.597 33.0138 74.9121 33.3563C75.2271 33.6988 75.3847 34.1029 75.3847 34.5686C75.3847 34.8152 75.1518 35.5823 74.686 36.87C74.2203 38.1577 73.9874 39.1235 73.9874 39.7673C73.9874 40.3564 74.0833 40.7673 74.2751 41.0002C74.4669 41.2331 74.7545 41.3564 75.1381 41.3701C75.5217 41.3838 75.8847 41.2673 76.2271 41.0207C76.5696 40.7742 76.823 40.5413 76.9874 40.3221L77.2134 39.9728C77.2408 39.918 77.5011 38.8769 77.9943 36.8495C78.4052 35.2056 78.6518 34.2467 78.734 33.9727C78.8162 33.6988 78.9121 33.5001 79.0217 33.3768C79.2546 33.1714 79.5011 33.0686 79.7614 33.0686C79.9943 33.0686 80.1655 33.1371 80.2751 33.2741C80.3847 33.4111 80.4395 33.5412 80.4395 33.6645L78.8778 40.1988C78.8641 40.2673 78.8573 40.3769 78.8573 40.5276C78.8573 40.8701 78.9052 41.0961 79.0011 41.2057C79.097 41.3153 79.2409 41.3769 79.4326 41.3906C79.734 41.3495 79.9737 41.1372 80.1518 40.7536C80.3299 40.3701 80.5354 39.7673 80.7683 38.9454C80.7957 38.8358 80.9327 38.781 81.1792 38.781C81.4395 38.781 81.5696 38.8426 81.5696 38.9659C81.5559 39.0344 81.5422 39.1303 81.5285 39.2536C81.5148 39.3769 81.4532 39.5961 81.3436 39.9111C81.234 40.2262 81.1176 40.5207 80.9943 40.7947C80.871 41.0687 80.6998 41.329 80.4806 41.5755C80.2614 41.8221 80.0148 41.9934 79.7409 42.0892C79.6313 42.1166 79.4669 42.1303 79.2477 42.1303C78.3436 42.1303 77.7203 41.7468 77.3778 40.9796C77.3504 40.9933 77.2751 41.0618 77.1518 41.1851C77.0285 41.3084 76.9052 41.4112 76.7819 41.4933C76.6586 41.5755 76.508 41.6783 76.3299 41.8016C76.1518 41.9249 75.9532 42.007 75.734 42.0481C75.5148 42.0892 75.2819 42.1235 75.0353 42.1509C74.4326 42.1509 73.8984 42.0276 73.4326 41.781C72.7203 41.3564 72.3641 40.6303 72.3641 39.6029C72.3641 38.8221 72.6038 37.8015 73.0833 36.5413C73.5627 35.281 73.8025 34.4796 73.8025 34.1371C73.8025 34.1234 73.8025 34.1097 73.8025 34.096C73.8025 33.9727 73.8025 33.8906 73.8025 33.8495C73.8025 33.8084 73.7751 33.7604 73.7203 33.7056C73.6655 33.6508 73.5901 33.6234 73.4942 33.6234H73.4121C73.097 33.6234 72.8093 33.7536 72.549 34.0138C72.2888 34.2741 72.0833 34.5549 71.9326 34.8563C71.7819 35.1577 71.6655 35.4454 71.5833 35.7193C71.5011 35.9933 71.4463 36.144 71.4189 36.1714C71.3915 36.1988 71.2819 36.2125 71.0901 36.2125H70.8024C70.7202 36.1303 70.6792 36.0687 70.6792 36.0276Z" fill="#252323" stroke="#252323" stroke-width="0.16"/>
<path d="M83.6039 41.2057C83.6039 41.2057 83.6039 41.0344 83.6039 40.692C83.6039 40.3495 83.7135 40.055 83.9327 39.8084C84.1518 39.5618 84.4464 39.4385 84.8162 39.4385C85.1998 39.4385 85.5423 39.6098 85.8436 39.9522C86.145 40.2947 86.3025 40.8975 86.3162 41.7605C86.3162 42.2399 86.2546 42.7057 86.1313 43.1577C86.008 43.6098 85.8642 44.0002 85.6998 44.329C85.5354 44.6578 85.3573 44.9386 85.1656 45.1715C84.9738 45.4043 84.8094 45.5893 84.6724 45.7263C84.5354 45.8632 84.4464 45.9249 84.4053 45.9112C84.3505 45.9112 84.2614 45.8495 84.1381 45.7263C84.0149 45.603 83.9532 45.5139 83.9532 45.4591C83.9532 45.4043 84.0286 45.2947 84.1792 45.1304C84.3299 44.966 84.5012 44.7605 84.6929 44.5139C84.8847 44.2673 85.0628 43.9249 85.2272 43.4865C85.3916 43.0482 85.5012 42.5481 85.556 41.9865V41.7399L85.5354 41.7605C85.508 41.7742 85.4738 41.7879 85.4327 41.8016C85.3916 41.8153 85.3505 41.8358 85.3094 41.8632C85.2683 41.8906 85.2066 41.9043 85.1245 41.9043C85.0423 41.9043 84.9601 41.9112 84.8779 41.9249C84.508 41.9249 84.2066 41.8084 83.9738 41.5755L83.6039 41.2057Z" fill="#252323" stroke="#252323" stroke-width="0.16"/>
<path d="M95.8218 28.8357C95.3561 28.8357 95.1095 28.8083 95.0821 28.7535C95.0684 28.7261 95.0615 28.6713 95.0615 28.5891C95.0615 28.2604 95.1369 28.0343 95.2876 27.9111C95.315 27.8974 95.4177 27.8905 95.5958 27.8905C96.3355 27.9316 97.2054 27.9522 98.2054 27.9522C100.137 27.9522 101.247 27.9316 101.534 27.8905H101.781C101.863 27.9727 101.904 28.0343 101.904 28.0754C101.904 28.1165 101.89 28.2398 101.863 28.4453C101.794 28.6508 101.733 28.7809 101.678 28.8357H100.897C99.952 28.8494 99.3972 28.9111 99.2328 29.0207C99.1369 29.0755 99.041 29.2672 98.9451 29.596C98.8492 29.9248 98.3903 31.733 97.5684 35.0207C97.3492 35.9111 97.1163 36.8563 96.8698 37.8563C96.6232 38.8563 96.4383 39.6098 96.315 40.1166L96.13 40.8564C96.13 40.9112 96.1917 40.9385 96.315 40.9385C96.4383 40.9385 96.8424 40.9522 97.5273 40.9796H97.8766C98.315 40.9796 98.6643 40.9728 98.9246 40.9591C99.1849 40.9454 99.5205 40.8975 99.9314 40.8153C100.342 40.7331 100.685 40.6098 100.959 40.4454C101.233 40.281 101.534 40.0481 101.863 39.7468C102.192 39.4454 102.479 39.0687 102.726 38.6166C102.945 38.2057 103.151 37.7467 103.342 37.2399C103.534 36.733 103.651 36.4454 103.692 36.3769C103.76 36.3358 103.877 36.3152 104.041 36.3152H104.308C104.39 36.4385 104.431 36.5139 104.431 36.5413C104.431 36.5687 104.294 36.9728 104.021 37.7536C103.747 38.5344 103.445 39.3563 103.116 40.2194C102.788 41.0824 102.61 41.5892 102.582 41.7399C102.555 41.8084 102.527 41.8495 102.5 41.8632C102.473 41.8769 102.363 41.8975 102.171 41.9249C101.979 41.9523 101.685 41.9591 101.288 41.9454C101.137 41.9454 100.616 41.9454 99.726 41.9454C98.8355 41.9454 97.9862 41.9386 97.178 41.9249H93.5204C92.3697 41.9249 91.7944 41.8564 91.7944 41.7194C91.7944 41.6235 91.8081 41.5276 91.8355 41.4317C91.904 41.1714 91.9725 41.0276 92.041 41.0002C92.0958 40.9865 92.1985 40.9796 92.3492 40.9796H92.4725C92.8423 40.9796 93.2533 40.9591 93.7054 40.918C93.8971 40.8769 94.0273 40.7947 94.0958 40.6714C94.1369 40.6166 94.63 38.7125 95.5752 34.9591C96.5204 31.2056 96.9931 29.2261 96.9931 29.0207C96.9931 28.9248 96.6026 28.8631 95.8218 28.8357Z" fill="#252323" stroke="#252323" stroke-width="0.16"/>
<path d="M106.733 41.2057C106.733 41.2057 106.733 41.0344 106.733 40.692C106.733 40.3495 106.842 40.055 107.062 39.8084C107.281 39.5618 107.575 39.4385 107.945 39.4385C108.329 39.4385 108.671 39.6098 108.973 39.9522C109.274 40.2947 109.432 40.8975 109.445 41.7605C109.445 42.2399 109.384 42.7057 109.26 43.1577C109.137 43.6098 108.993 44.0002 108.829 44.329C108.664 44.6578 108.486 44.9386 108.295 45.1715C108.103 45.4043 107.938 45.5893 107.801 45.7263C107.664 45.8632 107.575 45.9249 107.534 45.9112C107.479 45.9112 107.39 45.8495 107.267 45.7263C107.144 45.603 107.082 45.5139 107.082 45.4591C107.082 45.4043 107.158 45.2947 107.308 45.1304C107.459 44.966 107.63 44.7605 107.822 44.5139C108.014 44.2673 108.192 43.9249 108.356 43.4865C108.521 43.0482 108.63 42.5481 108.685 41.9865V41.7399L108.664 41.7605C108.637 41.7742 108.603 41.7879 108.562 41.8016C108.521 41.8153 108.479 41.8358 108.438 41.8632C108.397 41.8906 108.336 41.9043 108.253 41.9043C108.171 41.9043 108.089 41.9112 108.007 41.9249C107.637 41.9249 107.336 41.8084 107.103 41.5755L106.733 41.2057Z" fill="#252323" stroke="#252323" stroke-width="0.16"/>
<path d="M115.46 46.3633C115.268 46.3633 115.103 46.3085 114.966 46.1989C114.829 46.0893 114.754 45.9386 114.74 45.7468C114.74 45.6098 115.24 43.5413 116.24 39.5413C117.24 35.5413 117.768 33.5001 117.823 33.418C118.001 33.0344 118.316 32.8426 118.768 32.8426C118.932 32.8563 119.069 32.9042 119.179 32.9864C119.288 33.0686 119.357 33.1508 119.384 33.233C119.412 33.3152 119.425 33.3837 119.425 33.4385C119.425 33.6029 119.213 34.5207 118.788 36.1919C118.364 37.8632 118.138 38.8016 118.11 39.007C118.083 39.1577 118.069 39.3974 118.069 39.7262V39.8906C118.069 40.8906 118.528 41.3906 119.446 41.3906C119.569 41.3906 119.693 41.3838 119.816 41.3701C119.939 41.3564 120.056 41.329 120.165 41.2879C120.275 41.2468 120.377 41.1988 120.473 41.144C120.569 41.0892 120.658 41.0413 120.74 41.0002C120.823 40.9591 120.905 40.8906 120.987 40.7947C121.069 40.6988 121.145 40.6303 121.213 40.5892C121.282 40.5481 121.35 40.4659 121.419 40.3427C121.487 40.2194 121.542 40.144 121.583 40.1166C121.624 40.0892 121.686 40.007 121.768 39.8701L121.912 39.6646L122.651 36.7262C123.145 34.781 123.419 33.7467 123.473 33.6234C123.651 33.2536 123.946 33.0686 124.357 33.0686C124.535 33.0686 124.679 33.1166 124.788 33.2125C124.898 33.3084 124.973 33.3906 125.014 33.459C125.056 33.5275 125.069 33.596 125.056 33.6645L123.494 40.1988C123.48 40.2673 123.473 40.3769 123.473 40.5276C123.473 40.8701 123.521 41.0961 123.617 41.2057C123.713 41.3153 123.857 41.3769 124.049 41.3906C124.172 41.3769 124.309 41.3153 124.46 41.2057C124.747 40.9317 125.028 40.2742 125.302 39.2331C125.384 38.9591 125.453 38.8153 125.508 38.8016C125.535 38.7879 125.604 38.781 125.713 38.781H125.795C126.056 38.781 126.186 38.8426 126.186 38.9659C126.186 39.0481 126.151 39.2331 126.083 39.5207C126.014 39.8084 125.878 40.1783 125.672 40.6303C125.467 41.0824 125.247 41.4249 125.014 41.6577C124.836 41.8358 124.617 41.9797 124.357 42.0892C124.247 42.1166 124.083 42.1303 123.864 42.1303C123.576 42.1303 123.316 42.0892 123.083 42.0071C122.85 41.9249 122.665 41.8221 122.528 41.6988C122.391 41.5755 122.275 41.4523 122.179 41.329C122.083 41.2057 122.021 41.1029 121.994 41.0207C121.967 40.9386 121.953 40.8906 121.953 40.8769L121.83 41.0002C121.747 41.0824 121.624 41.1851 121.46 41.3084C121.295 41.4317 121.117 41.555 120.925 41.6783C120.734 41.8016 120.487 41.9112 120.186 42.0071C119.884 42.1029 119.597 42.1509 119.323 42.1509C118.679 42.1509 118.042 41.9934 117.412 41.6783L116.919 43.6715C116.631 44.7947 116.46 45.4454 116.405 45.6235C116.35 45.8016 116.268 45.9523 116.158 46.0756C115.939 46.2674 115.706 46.3633 115.46 46.3633Z" fill="#252323" stroke="#252323" stroke-width="0.16"/>
<path d="M127.891 26.5343L127.973 26.5138C128.042 26.5138 128.11 26.5138 128.179 26.5138H128.425L129.001 27.0069C130.289 28.1713 131.227 29.6234 131.816 31.3631C132.405 33.1029 132.699 34.9111 132.699 36.7878C132.699 37.7193 132.631 38.6166 132.494 39.4796C132.357 40.3426 132.199 41.0755 132.021 41.6783C131.843 42.281 131.59 42.8838 131.261 43.4865C130.932 44.0892 130.672 44.5482 130.48 44.8632C130.289 45.1783 130.008 45.5276 129.638 45.9112C129.268 46.2947 129.049 46.5208 128.98 46.5893C128.912 46.6578 128.754 46.7879 128.508 46.9797C128.467 47.0208 128.439 47.0482 128.425 47.0619H128.179C128.069 47.0619 127.994 47.0619 127.953 47.0619C127.912 47.0619 127.878 47.0413 127.85 47.0002C127.823 46.9591 127.802 46.8975 127.788 46.8153C127.802 46.8016 127.878 46.7126 128.015 46.5482C130.138 44.3427 131.199 41.0892 131.199 36.7878C131.199 32.4864 130.138 29.233 128.015 27.0275C127.878 26.8631 127.802 26.7741 127.788 26.7604C127.788 26.6508 127.823 26.5754 127.891 26.5343Z" fill="#252323" stroke="#252323" stroke-width="0.16"/>
<path d="M141.51 34.7947C141.51 34.6166 141.606 34.4796 141.798 34.3837H154.887C155.093 34.4933 155.196 34.6303 155.196 34.7947C155.196 34.9453 155.1 35.0755 154.908 35.1851L148.374 35.2056H141.839C141.62 35.1371 141.51 35.0001 141.51 34.7947ZM141.51 38.781C141.51 38.5755 141.62 38.4385 141.839 38.37H154.908C155.1 38.507 155.196 38.644 155.196 38.781C155.196 38.9591 155.093 39.0961 154.887 39.192H141.798C141.606 39.0961 141.51 38.9591 141.51 38.781Z" fill="#252323" stroke="#252323" stroke-width="0.16"/>
<path d="M167.767 32.4727C167.315 32.4727 167.075 32.2673 167.048 31.8563C167.048 31.7193 167.39 30.2672 168.075 27.5001C168.76 24.7329 169.13 23.3083 169.185 23.2261C169.404 22.4727 169.781 21.7398 170.315 21.0274C171.274 19.8494 172.363 19.1644 173.582 18.9726C173.609 18.9726 173.664 18.9726 173.746 18.9726C173.829 18.9726 173.897 18.9658 173.952 18.9521C174.952 18.9521 175.719 19.2809 176.253 19.9384C176.787 20.5959 177.055 21.4042 177.055 22.3631C177.055 23.1439 176.89 23.9042 176.561 24.6439C176.233 25.3836 175.815 26.0069 175.308 26.5138C174.801 27.0206 174.253 27.4384 173.664 27.7672C173.075 28.096 172.534 28.2535 172.041 28.2398H171.815H171.671C170.972 28.2398 170.404 27.9316 169.965 27.3152L169.863 27.1919L169.308 29.4933C168.965 30.822 168.767 31.5755 168.712 31.7535C168.657 31.9316 168.575 32.0755 168.465 32.1851C168.246 32.3768 168.013 32.4727 167.767 32.4727ZM175.287 21.4179C175.287 20.911 175.171 20.5 174.938 20.185C174.705 19.8699 174.363 19.7124 173.911 19.7124C173.431 19.7124 172.952 19.911 172.472 20.3083C171.993 20.7055 171.609 21.2261 171.322 21.8699C171.13 22.2946 170.87 23.185 170.541 24.5412L170.192 25.9384C170.424 26.9795 171 27.5001 171.918 27.5001C172.438 27.5001 172.945 27.2535 173.438 26.7604C173.89 26.3494 174.267 25.6919 174.568 24.7877C174.87 23.8836 175.068 23.1439 175.164 22.5686C175.26 21.9932 175.301 21.6096 175.287 21.4179Z" fill="#252323" stroke="#252323" stroke-width="0.16"/>
<path d="M177.63 22.137C177.63 22.0275 177.692 21.8151 177.815 21.5001C177.938 21.185 178.109 20.8288 178.329 20.4316C178.548 20.0343 178.849 19.6918 179.233 19.4041C179.616 19.1165 180.02 18.9658 180.445 18.9521C181.075 18.9521 181.548 19.1233 181.863 19.4658C182.178 19.8083 182.335 20.2124 182.335 20.6781C182.335 20.9247 182.103 21.6918 181.637 22.9795C181.171 24.2672 180.938 25.233 180.938 25.8768C180.938 26.4658 181.034 26.8768 181.226 27.1097C181.418 27.3426 181.705 27.4658 182.089 27.4795C182.472 27.4932 182.835 27.3768 183.178 27.1302C183.52 26.8837 183.774 26.6508 183.938 26.4316L184.164 26.0823C184.192 26.0275 184.452 24.9864 184.945 22.959C185.356 21.3151 185.603 20.3562 185.685 20.0822C185.767 19.8083 185.863 19.6096 185.972 19.4863C186.205 19.2809 186.452 19.1781 186.712 19.1781C186.945 19.1781 187.116 19.2466 187.226 19.3836C187.335 19.5206 187.39 19.6507 187.39 19.774L185.829 26.3083C185.815 26.3768 185.808 26.4864 185.808 26.6371C185.808 26.9795 185.856 27.2056 185.952 27.3152C186.048 27.4248 186.192 27.4864 186.383 27.5001C186.685 27.459 186.925 27.2467 187.103 26.8631C187.281 26.4795 187.486 25.8768 187.719 25.0549C187.746 24.9453 187.883 24.8905 188.13 24.8905C188.39 24.8905 188.52 24.9521 188.52 25.0754C188.507 25.1439 188.493 25.2398 188.479 25.3631C188.466 25.4864 188.404 25.7056 188.294 26.0206C188.185 26.3357 188.068 26.6302 187.945 26.9042C187.822 27.1782 187.651 27.4385 187.431 27.685C187.212 27.9316 186.966 28.1028 186.692 28.1987C186.582 28.2261 186.418 28.2398 186.198 28.2398C185.294 28.2398 184.671 27.8563 184.329 27.0891C184.301 27.1028 184.226 27.1713 184.103 27.2946C183.979 27.4179 183.856 27.5206 183.733 27.6028C183.609 27.685 183.459 27.7878 183.281 27.9111C183.103 28.0343 182.904 28.1165 182.685 28.1576C182.466 28.1987 182.233 28.233 181.986 28.2604C181.383 28.2604 180.849 28.1371 180.383 27.8905C179.671 27.4658 179.315 26.7398 179.315 25.7124C179.315 24.9316 179.555 23.911 180.034 22.6507C180.514 21.3905 180.753 20.5891 180.753 20.2466C180.753 20.2329 180.753 20.2192 180.753 20.2055C180.753 20.0822 180.753 20 180.753 19.9589C180.753 19.9178 180.726 19.8699 180.671 19.8151C180.616 19.7603 180.541 19.7329 180.445 19.7329H180.363C180.048 19.7329 179.76 19.8631 179.5 20.1233C179.24 20.3836 179.034 20.6644 178.883 20.9658C178.733 21.2672 178.616 21.5548 178.534 21.8288C178.452 22.1028 178.397 22.2535 178.37 22.2809C178.342 22.3083 178.233 22.322 178.041 22.322H177.753C177.671 22.2398 177.63 22.1781 177.63 22.137Z" fill="#252323" stroke="#252323" stroke-width="0.16"/>
<path d="M193.637 14.9452C193.171 14.9452 192.925 14.9178 192.897 14.863C192.883 14.8356 192.877 14.7808 192.877 14.6986C192.877 14.3699 192.952 14.1438 193.103 14.0205C193.13 14.0068 193.233 14 193.411 14C194.151 14.0411 195.02 14.0616 196.02 14.0616C197.952 14.0616 199.062 14.0411 199.349 14H199.596C199.678 14.0822 199.719 14.1438 199.719 14.1849C199.719 14.226 199.705 14.3493 199.678 14.5548C199.61 14.7603 199.548 14.8904 199.493 14.9452H198.712C197.767 14.9589 197.212 15.0206 197.048 15.1301C196.952 15.1849 196.856 15.3767 196.76 15.7055C196.664 16.0343 196.205 17.8425 195.383 21.1302C195.164 22.0206 194.931 22.9658 194.685 23.9658C194.438 24.9658 194.253 25.7193 194.13 26.2261L193.945 26.9658C193.945 27.0206 194.007 27.048 194.13 27.048C194.253 27.048 194.657 27.0617 195.342 27.0891H195.692C196.13 27.0891 196.479 27.0823 196.74 27.0686C197 27.0549 197.336 27.0069 197.747 26.9247C198.157 26.8426 198.5 26.7193 198.774 26.5549C199.048 26.3905 199.349 26.1576 199.678 25.8562C200.007 25.5549 200.294 25.1782 200.541 24.7261C200.76 24.3151 200.966 23.8562 201.157 23.3494C201.349 22.8425 201.466 22.5549 201.507 22.4864C201.575 22.4453 201.692 22.4247 201.856 22.4247H202.123C202.205 22.548 202.247 22.6233 202.247 22.6507C202.247 22.6781 202.11 23.0823 201.836 23.8631C201.562 24.6439 201.26 25.4658 200.931 26.3289C200.603 27.1919 200.425 27.6987 200.397 27.8494C200.37 27.9179 200.342 27.959 200.315 27.9727C200.288 27.9864 200.178 28.0069 199.986 28.0343C199.794 28.0617 199.5 28.0686 199.103 28.0549C198.952 28.0549 198.431 28.0549 197.541 28.0549C196.651 28.0549 195.801 28.048 194.993 28.0343H191.336C190.185 28.0343 189.609 27.9658 189.609 27.8289C189.609 27.733 189.623 27.6371 189.651 27.5412C189.719 27.2809 189.788 27.1371 189.856 27.1097C189.911 27.096 190.014 27.0891 190.164 27.0891H190.288C190.657 27.0891 191.068 27.0686 191.52 27.0275C191.712 26.9864 191.842 26.9042 191.911 26.7809C191.952 26.7261 192.445 24.822 193.39 21.0685C194.336 17.3151 194.808 15.3356 194.808 15.1301C194.808 15.0342 194.418 14.9726 193.637 14.9452Z" fill="#252323" stroke="#252323" stroke-width="0.16"/>
<path d="M179.757 60.4592C179.565 60.4592 179.401 60.4044 179.264 60.2949C179.127 60.1853 179.051 60.0346 179.038 59.8428C179.038 59.7058 179.538 57.6373 180.538 53.6373C181.538 49.6372 182.065 47.5961 182.12 47.5139C182.298 47.1304 182.613 46.9386 183.065 46.9386C183.229 46.9523 183.366 47.0002 183.476 47.0824C183.585 47.1646 183.654 47.2468 183.681 47.329C183.709 47.4112 183.722 47.4797 183.722 47.5345C183.722 47.6989 183.51 48.6167 183.085 50.2879C182.661 51.9592 182.435 52.8975 182.407 53.103C182.38 53.2537 182.366 53.4934 182.366 53.8222V53.9866C182.366 54.9866 182.825 55.4866 183.743 55.4866C183.866 55.4866 183.99 55.4797 184.113 55.466C184.236 55.4524 184.353 55.425 184.462 55.3839C184.572 55.3428 184.675 55.2948 184.77 55.24C184.866 55.1852 184.955 55.1373 185.038 55.0962C185.12 55.0551 185.202 54.9866 185.284 54.8907C185.366 54.7948 185.442 54.7263 185.51 54.6852C185.579 54.6441 185.647 54.5619 185.716 54.4386C185.784 54.3154 185.839 54.24 185.88 54.2126C185.921 54.1852 185.983 54.103 186.065 53.966L186.209 53.7606L186.949 50.8222C187.442 48.877 187.716 47.8427 187.77 47.7194C187.949 47.3496 188.243 47.1646 188.654 47.1646C188.832 47.1646 188.976 47.2126 189.086 47.3085C189.195 47.4043 189.27 47.4865 189.312 47.555C189.353 47.6235 189.366 47.692 189.353 47.7605L187.791 54.2948C187.777 54.3633 187.77 54.4729 187.77 54.6236C187.77 54.966 187.818 55.1921 187.914 55.3017C188.01 55.4113 188.154 55.4729 188.346 55.4866C188.469 55.4729 188.606 55.4113 188.757 55.3017C189.044 55.0277 189.325 54.3702 189.599 53.329C189.681 53.0551 189.75 52.9112 189.805 52.8975C189.832 52.8838 189.901 52.877 190.01 52.877H190.092C190.353 52.877 190.483 52.9386 190.483 53.0619C190.483 53.1441 190.449 53.329 190.38 53.6167C190.312 53.9044 190.175 54.2743 189.969 54.7263C189.764 55.1784 189.544 55.5208 189.312 55.7537C189.133 55.9318 188.914 56.0756 188.654 56.1852C188.544 56.2126 188.38 56.2263 188.161 56.2263C187.873 56.2263 187.613 56.1852 187.38 56.103C187.147 56.0208 186.962 55.9181 186.825 55.7948C186.688 55.6715 186.572 55.5482 186.476 55.425C186.38 55.3017 186.318 55.1989 186.291 55.1167C186.264 55.0345 186.25 54.9866 186.25 54.9729L186.127 55.0962C186.044 55.1784 185.921 55.2811 185.757 55.4044C185.592 55.5277 185.414 55.651 185.222 55.7743C185.031 55.8976 184.784 56.0071 184.483 56.103C184.181 56.1989 183.894 56.2469 183.62 56.2469C182.976 56.2469 182.339 56.0893 181.709 55.7743L181.216 57.7674C180.928 58.8907 180.757 59.5414 180.702 59.7195C180.647 59.8976 180.565 60.0483 180.455 60.1716C180.236 60.3633 180.003 60.4592 179.757 60.4592Z" fill="#252323" stroke="#252323" stroke-width="0.16"/>
<path d="M205 37.4043H164.52V36.1714H205V37.4043Z" fill="#252323" stroke="#252323" stroke-width="0.16"/>
</svg>
