<svg width="225" height="75" viewBox="0 0 225 75" fill="none" xmlns="http://www.w3.org/2000/svg">
<rect width="225" height="75" fill="white"/>
<rect x="0.5" y="74.5" width="74" height="224" transform="rotate(-90 0.5 74.5)" fill="white" stroke="white"/>
<path d="M32.4517 31.3152C32.0449 31.3152 31.8039 31.3077 31.7286 31.2926C31.6532 31.2776 31.6156 31.1947 31.6156 31.0441C31.6156 30.6373 31.6984 30.3887 31.8641 30.2984C31.8943 30.2833 33.2049 30.2758 35.7961 30.2758C38.3872 30.2908 39.7882 30.3134 39.9992 30.3436C40.8428 30.4641 41.5508 30.675 42.1233 30.9763C42.6958 31.2776 43.1025 31.6241 43.3435 32.0157C43.5846 32.4074 43.7428 32.7313 43.8181 32.9874C43.8934 33.2435 43.9386 33.4996 43.9537 33.7557C43.9537 34.4337 43.7352 35.0664 43.2984 35.6539C42.8615 36.2414 42.3568 36.6934 41.7843 37.0097C41.2119 37.3261 40.7072 37.5822 40.2703 37.7781C39.8334 37.9739 39.5472 38.0718 39.4116 38.0718L39.5698 38.1848C40.5791 38.7573 41.0838 39.5858 41.0838 40.6705C41.0838 40.8362 41.0462 41.2957 40.9708 42.0489C40.8955 42.8022 40.8578 43.4198 40.8578 43.9019V44.1053C40.8578 44.3765 40.8654 44.5874 40.8804 44.738C40.8955 44.8887 40.9784 45.0242 41.129 45.1448C41.2797 45.2653 41.4755 45.3331 41.7165 45.3481C42.1384 45.3481 42.4849 45.1824 42.756 44.851C43.0272 44.5196 43.223 44.1656 43.3435 43.7889C43.4189 43.578 43.4791 43.45 43.5243 43.4048C43.5695 43.3596 43.6825 43.337 43.8633 43.337C44.1646 43.337 44.3152 43.4274 44.3152 43.6082C44.3152 43.8793 44.1345 44.3087 43.7729 44.8962C43.2004 45.7549 42.5225 46.1842 41.7391 46.1842H41.5358C40.6168 46.1842 39.856 45.9959 39.2534 45.6193C38.6508 45.2427 38.3194 44.6552 38.2592 43.8567C38.2592 43.45 38.3721 42.8172 38.5981 41.9586C38.8241 41.0999 38.9371 40.55 38.9371 40.309C38.9371 39.5406 38.6132 38.9832 37.9654 38.6368C37.7394 38.5313 37.5511 38.471 37.4005 38.456C37.2498 38.4409 36.715 38.4258 35.7961 38.4108H34.2368L33.5137 41.3484C33.0166 43.337 32.768 44.3463 32.768 44.3765C32.768 44.4367 32.7756 44.4744 32.7906 44.4894C32.8057 44.5045 32.8584 44.5346 32.9488 44.5798C33.0392 44.625 33.1672 44.6401 33.333 44.625C33.4987 44.61 33.7472 44.625 34.0787 44.6702H34.7792C34.8696 44.7907 34.9148 44.8585 34.9148 44.8736C34.9148 44.8887 34.8922 45.0242 34.847 45.2804C34.7867 45.4762 34.7114 45.6193 34.621 45.7097H34.282C33.7397 45.6796 32.753 45.6645 31.3218 45.6645C30.8096 45.6645 30.3351 45.6645 29.8982 45.6645C29.4613 45.6645 29.1148 45.6645 28.8587 45.6645C28.6026 45.6645 28.4444 45.672 28.3842 45.6871C28.1281 45.6871 28 45.6193 28 45.4837C28 45.4536 28.0226 45.3481 28.0678 45.1674C28.1431 44.8811 28.2184 44.723 28.2938 44.6928C28.354 44.6778 28.467 44.6702 28.6327 44.6702H28.7683C29.1751 44.6702 29.627 44.6476 30.1241 44.6024C30.3351 44.5572 30.4782 44.4668 30.5535 44.3313C30.5987 44.271 31.141 42.177 32.1805 38.0492C33.22 33.9215 33.7397 31.7446 33.7397 31.5186C33.7397 31.4132 33.3104 31.3454 32.4517 31.3152ZM41.4906 33.1908C41.4906 32.7087 41.3324 32.302 41.016 31.9706C40.6997 31.6391 40.0519 31.4282 39.0727 31.3378C39.0425 31.3378 38.8693 31.3378 38.5529 31.3378C38.2366 31.3378 37.9503 31.3303 37.6942 31.3152H37.1971C36.489 31.3152 36.0823 31.3906 35.9768 31.5412C35.9618 31.5864 35.7057 32.5882 35.2085 34.5466C34.7114 36.5051 34.4628 37.5069 34.4628 37.5521C34.4628 37.5671 34.9826 37.5747 36.022 37.5747C37.1971 37.5596 37.9805 37.5069 38.3721 37.4165C39.3363 37.2659 40.0895 36.8214 40.6319 36.0833C40.8729 35.7368 41.0763 35.2848 41.242 34.7274C41.4077 34.17 41.4906 33.6578 41.4906 33.1908Z" fill="#252323"/>
<path d="M45.2869 41.9134C45.2869 41.0547 45.43 40.2713 45.7163 39.5632C46.0025 38.8552 46.3716 38.2677 46.8235 37.8006C47.2755 37.3336 47.7802 36.9419 48.3376 36.6256C48.895 36.3092 49.4222 36.0757 49.9194 35.9251C50.4165 35.7744 50.8911 35.7066 51.343 35.7217H51.4108C52.0887 35.7217 52.6762 35.8874 53.1734 36.2188C53.6705 36.5503 53.9191 37.0399 53.9191 37.6877C53.9191 39.0435 53.083 39.9323 51.4108 40.3541C50.6726 40.55 49.6633 40.6554 48.3828 40.6705C47.8254 40.6705 47.5391 40.6856 47.5241 40.7157C47.5241 40.7458 47.4789 41.0095 47.3885 41.5066C47.2981 42.0037 47.2454 42.4406 47.2303 42.8172C47.2303 43.5253 47.3885 44.0827 47.7048 44.4894C48.0212 44.8962 48.4957 45.1071 49.1285 45.1222C49.7612 45.1372 50.4617 44.9941 51.23 44.6928C51.9983 44.3915 52.6913 43.8944 53.309 43.2014C53.4445 43.0507 53.5349 42.9754 53.5801 42.9754C53.6404 42.9754 53.7383 43.0432 53.8739 43.1788C54.0095 43.3144 54.0848 43.4198 54.0999 43.4952C54.1149 43.5705 54.0471 43.691 53.8965 43.8567C53.7458 44.0224 53.5199 44.2258 53.2186 44.4668C52.9173 44.7079 52.5708 44.9414 52.1791 45.1674C51.7874 45.3933 51.3129 45.5816 50.7555 45.7323C50.1981 45.8829 49.6256 45.9583 49.0381 45.9583C47.848 45.9583 46.929 45.559 46.2812 44.7606C45.6334 43.9622 45.302 43.0131 45.2869 41.9134ZM52.8344 37.7329C52.744 36.9495 52.2318 36.5578 51.2978 36.5578C50.8007 36.5578 50.3412 36.6632 49.9194 36.8742C49.4976 37.0851 49.1586 37.3412 48.9025 37.6425C48.6464 37.9438 48.4279 38.2526 48.2472 38.569C48.0664 38.8853 47.9459 39.1565 47.8856 39.3825C47.8254 39.6084 47.7877 39.7515 47.7726 39.8118C47.7726 39.8269 47.9233 39.8344 48.2246 39.8344C49.9269 39.8344 51.117 39.6536 51.7949 39.2921C52.4729 38.9305 52.8194 38.4108 52.8344 37.7329Z" fill="#252323"/>
<path d="M57.0601 40.0604C57.0601 39.0209 57.1354 38.0342 57.2861 37.1001C57.4367 36.1661 57.61 35.3601 57.8058 34.6822C58.0016 34.0043 58.2803 33.3415 58.6419 32.6937C59.0035 32.0459 59.2897 31.5412 59.5006 31.1797C59.7115 30.8181 60.0279 30.4264 60.4497 30.0046C60.8715 29.5828 61.1201 29.3267 61.1954 29.2363C61.2707 29.1459 61.459 28.9877 61.7603 28.7617H62.0541H62.1445C62.3554 28.7617 62.4608 28.8295 62.4608 28.9651C62.4608 29.0103 62.3328 29.1685 62.0767 29.4397C61.8206 29.7108 61.5118 30.11 61.1502 30.6373C60.7886 31.1646 60.4196 31.8124 60.0429 32.5807C59.6663 33.349 59.3499 34.3885 59.0938 35.6991C58.8377 37.0097 58.7097 38.4635 58.7097 40.0604C58.7097 41.6573 58.8377 43.1035 59.0938 44.3991C59.3499 45.6946 59.6588 46.7416 60.0203 47.5401C60.3819 48.3385 60.751 48.9863 61.1276 49.4834C61.5042 49.9806 61.8206 50.3798 62.0767 50.6811C62.3328 50.9824 62.4608 51.1406 62.4608 51.1556C62.4608 51.2912 62.3479 51.359 62.1219 51.359H62.0541H61.7603L61.1276 50.8167C59.7115 49.5362 58.6796 47.9393 58.0318 46.0261C57.384 44.1128 57.0601 42.1243 57.0601 40.0604Z" fill="#252323"/>
<path d="M64.2008 39.2243C64.2008 39.1038 64.2686 38.8703 64.4042 38.5238C64.5398 38.1773 64.7281 37.7856 64.9691 37.3487C65.2102 36.9118 65.5416 36.5352 65.9634 36.2188C66.3852 35.9025 66.8296 35.7368 67.2966 35.7217C67.9896 35.7217 68.5094 35.91 68.8558 36.2866C69.2023 36.6633 69.3756 37.1077 69.3756 37.6199C69.3756 37.891 69.1195 38.7347 68.6073 40.1508C68.0951 41.5669 67.839 42.6289 67.839 43.337C67.839 43.9848 67.9444 44.4367 68.1553 44.6928C68.3662 44.9489 68.6826 45.0845 69.1044 45.0996C69.5262 45.1146 69.9254 44.9866 70.3021 44.7154C70.6787 44.4442 70.9574 44.1881 71.1382 43.9471L71.3867 43.563C71.4169 43.5027 71.7031 42.3578 72.2454 40.1282C72.6974 38.3204 72.9685 37.2658 73.0589 36.9645C73.1493 36.6633 73.2548 36.4448 73.3753 36.3092C73.6314 36.0833 73.9026 35.9703 74.1888 35.9703C74.4449 35.9703 74.6332 36.0456 74.7537 36.1962C74.8743 36.3469 74.9345 36.49 74.9345 36.6256L73.2171 43.8115C73.2021 43.8868 73.1945 44.0074 73.1945 44.1731C73.1945 44.5497 73.2472 44.7983 73.3527 44.9188C73.4582 45.0393 73.6163 45.1071 73.8272 45.1222C74.1587 45.077 74.4223 44.8435 74.6181 44.4216C74.814 43.9998 75.04 43.337 75.2961 42.4331C75.3262 42.3126 75.4768 42.2523 75.748 42.2523C76.0342 42.2523 76.1774 42.3201 76.1774 42.4557C76.1623 42.531 76.1472 42.6365 76.1322 42.772C76.1171 42.9076 76.0493 43.1487 75.9288 43.4952C75.8083 43.8417 75.6802 44.1655 75.5446 44.4668C75.4091 44.7681 75.2207 45.0544 74.9797 45.3255C74.7387 45.5967 74.4675 45.785 74.1662 45.8905C74.0457 45.9206 73.8649 45.9357 73.6239 45.9357C72.6296 45.9357 71.9441 45.5139 71.5675 44.6702C71.5374 44.6853 71.4545 44.7606 71.3189 44.8962C71.1834 45.0318 71.0478 45.1448 70.9122 45.2352C70.7766 45.3255 70.6109 45.4385 70.4151 45.5741C70.2192 45.7097 70.0008 45.8001 69.7597 45.8453C69.5187 45.8905 69.2626 45.9281 68.9914 45.9583C68.3286 45.9583 67.741 45.8227 67.2288 45.5515C66.4455 45.0845 66.0538 44.2861 66.0538 43.1562C66.0538 42.2975 66.3174 41.1752 66.8447 39.7892C67.372 38.4032 67.6356 37.5219 67.6356 37.1453C67.6356 37.1303 67.6356 37.1152 67.6356 37.1001C67.6356 36.9645 67.6356 36.8742 67.6356 36.829C67.6356 36.7838 67.6055 36.731 67.5452 36.6708C67.4849 36.6105 67.4021 36.5804 67.2966 36.5804H67.2062C66.8598 36.5804 66.5434 36.7235 66.2572 37.0097C65.9709 37.296 65.745 37.6048 65.5792 37.9362C65.4135 38.2677 65.2855 38.584 65.1951 38.8853C65.1047 39.1866 65.0444 39.3523 65.0143 39.3825C64.9842 39.4126 64.8637 39.4277 64.6528 39.4277H64.3364C64.246 39.3373 64.2008 39.2695 64.2008 39.2243Z" fill="#252323"/>
<path d="M78.4145 44.9188C78.4145 44.9188 78.4145 44.7305 78.4145 44.3539C78.4145 43.9772 78.535 43.6533 78.7761 43.3822C79.0171 43.111 79.341 42.9754 79.7478 42.9754C80.1696 42.9754 80.5462 43.1637 80.8776 43.5404C81.2091 43.917 81.3823 44.5798 81.3974 45.5289C81.3974 46.0562 81.3296 46.5684 81.194 47.0655C81.0584 47.5627 80.9002 47.992 80.7194 48.3536C80.5387 48.7151 80.3428 49.024 80.1319 49.2801C79.921 49.5362 79.7402 49.7395 79.5896 49.8902C79.4389 50.0408 79.341 50.1086 79.2958 50.0936C79.2356 50.0936 79.1376 50.0258 79.002 49.8902C78.8665 49.7546 78.7987 49.6567 78.7987 49.5964C78.7987 49.5362 78.8815 49.4157 79.0472 49.2349C79.213 49.0541 79.4013 48.8281 79.6122 48.557C79.8231 48.2858 80.0189 47.9092 80.1997 47.4271C80.3805 46.945 80.501 46.3951 80.5613 45.7775V45.5063L80.5387 45.5289C80.5085 45.544 80.4709 45.559 80.4257 45.5741C80.3805 45.5892 80.3353 45.6118 80.2901 45.6419C80.2449 45.672 80.1771 45.6871 80.0867 45.6871C79.9963 45.6871 79.9059 45.6946 79.8156 45.7097C79.4088 45.7097 79.0774 45.5816 78.8213 45.3255L78.4145 44.9188Z" fill="#252323"/>
<path d="M91.8531 31.3152C91.3409 31.3152 91.0697 31.2851 91.0396 31.2248C91.0245 31.1947 91.017 31.1345 91.017 31.0441C91.017 30.6825 91.0999 30.4339 91.2656 30.2984C91.2957 30.2833 91.4087 30.2758 91.6045 30.2758C92.418 30.321 93.3747 30.3436 94.4744 30.3436C96.5985 30.3436 97.8188 30.321 98.1351 30.2758H98.4063C98.4967 30.3662 98.5419 30.4339 98.5419 30.4791C98.5419 30.5243 98.5268 30.6599 98.4967 30.8859C98.4214 31.1119 98.3536 31.255 98.2933 31.3152H97.4346C96.3952 31.3303 95.785 31.3981 95.6043 31.5186C95.4988 31.5789 95.3933 31.7898 95.2879 32.1513C95.1824 32.5129 94.6778 34.5015 93.7739 38.117C93.5328 39.0962 93.2767 40.1357 93.0056 41.2354C92.7344 42.3352 92.531 43.1637 92.3954 43.7211L92.1921 44.5346C92.1921 44.5949 92.2599 44.625 92.3954 44.625C92.531 44.625 92.9754 44.6401 93.7287 44.6702H94.1128C94.5949 44.6702 94.9791 44.6627 95.2653 44.6476C95.5515 44.6326 95.9206 44.5798 96.3726 44.4894C96.8245 44.3991 97.2011 44.2635 97.5024 44.0827C97.8037 43.9019 98.1351 43.6458 98.4967 43.3144C98.8583 42.983 99.1746 42.5687 99.4458 42.0715C99.6868 41.6196 99.9128 41.1149 100.124 40.5575C100.335 40.0001 100.463 39.6838 100.508 39.6084C100.583 39.5632 100.711 39.5406 100.892 39.5406H101.186C101.276 39.6762 101.321 39.7591 101.321 39.7892C101.321 39.8193 101.171 40.2638 100.869 41.1225C100.568 41.9811 100.237 42.885 99.8751 43.8341C99.5136 44.7832 99.3177 45.3406 99.2876 45.5063C99.2575 45.5816 99.2274 45.6268 99.1972 45.6419C99.1671 45.657 99.0466 45.6796 98.8357 45.7097C98.6248 45.7398 98.3009 45.7474 97.864 45.7323C97.6983 45.7323 97.1258 45.7323 96.1466 45.7323C95.1674 45.7323 94.2334 45.7248 93.3445 45.7097H89.3222C88.0568 45.7097 87.424 45.6344 87.424 45.4837C87.424 45.3783 87.4391 45.2728 87.4692 45.1674C87.5446 44.8811 87.6199 44.723 87.6952 44.6928C87.7555 44.6778 87.8685 44.6702 88.0342 44.6702H88.1698C88.5765 44.6702 89.0284 44.6476 89.5256 44.6024C89.7365 44.5572 89.8796 44.4669 89.9549 44.3313C90.0001 44.271 90.5425 42.177 91.5819 38.0492C92.6214 33.9215 93.1412 31.7446 93.1412 31.5186C93.1412 31.4132 92.7118 31.3454 91.8531 31.3152Z" fill="#252323"/>
<path d="M103.852 44.9188C103.852 44.9188 103.852 44.7305 103.852 44.3539C103.852 43.9772 103.973 43.6533 104.214 43.3822C104.455 43.111 104.779 42.9754 105.186 42.9754C105.607 42.9754 105.984 43.1637 106.315 43.5404C106.647 43.917 106.82 44.5798 106.835 45.5289C106.835 46.0562 106.767 46.5684 106.632 47.0655C106.496 47.5627 106.338 47.992 106.157 48.3536C105.976 48.7151 105.781 49.024 105.57 49.2801C105.359 49.5362 105.178 49.7395 105.027 49.8902C104.877 50.0408 104.779 50.1086 104.734 50.0936C104.673 50.0936 104.575 50.0258 104.44 49.8902C104.304 49.7546 104.236 49.6567 104.236 49.5964C104.236 49.5362 104.319 49.4157 104.485 49.2349C104.651 49.0541 104.839 48.8281 105.05 48.557C105.261 48.2858 105.457 47.9092 105.637 47.4271C105.818 46.945 105.939 46.3951 105.999 45.7775V45.5063L105.976 45.5289C105.946 45.544 105.909 45.559 105.863 45.5741C105.818 45.5892 105.773 45.6118 105.728 45.6419C105.683 45.672 105.615 45.6871 105.524 45.6871C105.434 45.6871 105.344 45.6946 105.253 45.7097C104.847 45.7097 104.515 45.5816 104.259 45.3255L103.852 44.9188Z" fill="#252323"/>
<path d="M116.046 37.1227C116.046 36.7461 115.903 36.5578 115.616 36.5578C115.255 36.5578 114.878 36.7762 114.487 37.2131C114.095 37.65 113.771 38.3204 113.515 39.2243C113.5 39.2393 113.485 39.2619 113.47 39.2921C113.455 39.3222 113.447 39.3448 113.447 39.3599C113.447 39.3749 113.432 39.39 113.402 39.4051C113.372 39.4201 113.349 39.4277 113.334 39.4277C113.319 39.4277 113.289 39.4277 113.244 39.4277C113.198 39.4277 113.138 39.4277 113.063 39.4277H112.747C112.656 39.3373 112.611 39.2695 112.611 39.2243C112.611 39.1188 112.671 38.9004 112.792 38.569C112.912 38.2375 113.093 37.8458 113.334 37.3939C113.575 36.9419 113.907 36.5578 114.328 36.2414C114.75 35.9251 115.225 35.7594 115.752 35.7443C116.385 35.7443 116.874 35.9251 117.221 36.2866C117.567 36.6482 117.748 37.07 117.763 37.5521C117.763 37.8082 117.741 38.004 117.695 38.1396C117.695 38.23 117.582 38.5614 117.356 39.1339C117.13 39.7063 116.897 40.3767 116.656 41.145C116.415 41.9134 116.279 42.5837 116.249 43.1562C116.249 43.563 116.287 43.8944 116.362 44.1505C116.558 44.7983 117.032 45.1222 117.786 45.1222C118.343 45.1222 118.863 44.8661 119.345 44.3539C119.827 43.8417 120.204 43.2466 120.475 42.5687C120.746 41.8908 120.964 41.2656 121.13 40.6931C121.296 40.1206 121.379 39.7063 121.379 39.4502C121.379 39.1038 121.318 38.8025 121.198 38.5464C121.077 38.2903 120.942 38.0944 120.791 37.9588C120.641 37.8232 120.505 37.6877 120.384 37.5521C120.264 37.4165 120.204 37.2508 120.204 37.0549C120.204 36.7235 120.347 36.4147 120.633 36.1284C120.919 35.8422 121.228 35.6991 121.559 35.6991C121.846 35.6991 122.102 35.8347 122.328 36.1059C122.554 36.377 122.674 36.8139 122.689 37.4165C122.689 37.8232 122.599 38.4484 122.418 39.2921C122.237 40.1357 121.959 41.0773 121.582 42.1167C121.205 43.1562 120.671 44.0526 119.978 44.8058C119.285 45.559 118.486 45.9432 117.582 45.9583C116.618 45.9583 115.85 45.7097 115.277 45.2126C114.72 44.7305 114.441 44.0149 114.441 43.0658C114.441 42.5988 114.502 42.1167 114.622 41.6196C114.743 41.1224 115.051 40.2412 115.549 38.9757C115.88 38.0116 116.046 37.3939 116.046 37.1227Z" fill="#252323"/>
<path d="M124.452 28.7843L124.542 28.7617C124.618 28.7617 124.693 28.7617 124.768 28.7617H125.039L125.672 29.3041C127.088 30.5846 128.12 32.1815 128.768 34.0947C129.416 36.0079 129.74 37.9965 129.74 40.0604C129.74 41.0848 129.664 42.0715 129.514 43.0206C129.363 43.9697 129.19 44.7757 128.994 45.4385C128.798 46.1014 128.519 46.7642 128.158 47.4271C127.796 48.0899 127.51 48.5946 127.299 48.9411C127.088 49.2876 126.779 49.6718 126.373 50.0936C125.966 50.5154 125.725 50.764 125.65 50.8393C125.574 50.9146 125.401 51.0577 125.13 51.2686C125.085 51.3138 125.055 51.344 125.039 51.359H124.768C124.648 51.359 124.565 51.359 124.52 51.359C124.475 51.359 124.437 51.3364 124.407 51.2912C124.377 51.246 124.354 51.1782 124.339 51.0879C124.354 51.0728 124.437 50.9749 124.588 50.7941C126.923 48.3686 128.09 44.7907 128.09 40.0604C128.09 35.33 126.923 31.7521 124.588 29.3267C124.437 29.1459 124.354 29.048 124.339 29.0329C124.339 28.9124 124.377 28.8295 124.452 28.7843Z" fill="#252323"/>
<path d="M139.429 37.8684C139.429 37.6726 139.535 37.522 139.746 37.4165H154.14C154.366 37.537 154.479 37.6877 154.479 37.8684C154.479 38.0342 154.374 38.1773 154.163 38.2978L146.977 38.3204H139.791C139.55 38.2451 139.429 38.0944 139.429 37.8684ZM139.429 42.2523C139.429 42.0263 139.55 41.8757 139.791 41.8004H154.163C154.374 41.951 154.479 42.1017 154.479 42.2523C154.479 42.4482 154.366 42.5988 154.14 42.7043H139.746C139.535 42.5988 139.429 42.4482 139.429 42.2523Z" fill="#252323"/>
<path d="M167.468 23.9485C167.468 23.828 167.536 23.5945 167.671 23.248C167.807 22.9015 167.995 22.5098 168.236 22.0729C168.477 21.6361 168.809 21.2594 169.231 20.9431C169.653 20.6267 170.097 20.461 170.564 20.4459C171.257 20.4459 171.777 20.6342 172.123 21.0109C172.47 21.3875 172.643 21.8319 172.643 22.3441C172.643 22.6153 172.387 23.4589 171.875 24.875C171.362 26.2911 171.106 27.3532 171.106 28.0612C171.106 28.709 171.212 29.161 171.423 29.4171C171.634 29.6732 171.95 29.8087 172.372 29.8238C172.794 29.8389 173.193 29.7108 173.569 29.4397C173.946 29.1685 174.225 28.9124 174.405 28.6713L174.654 28.2872C174.684 28.2269 174.97 27.082 175.513 24.8524C175.965 23.0446 176.236 21.9901 176.326 21.6888C176.417 21.3875 176.522 21.1691 176.643 21.0335C176.899 20.8075 177.17 20.6945 177.456 20.6945C177.712 20.6945 177.901 20.7698 178.021 20.9205C178.142 21.0711 178.202 21.2142 178.202 21.3498L176.484 28.5358C176.469 28.6111 176.462 28.7316 176.462 28.8973C176.462 29.2739 176.515 29.5225 176.62 29.643C176.725 29.7635 176.884 29.8313 177.095 29.8464C177.426 29.8012 177.69 29.5677 177.885 29.1459C178.081 28.7241 178.307 28.0612 178.563 27.1573C178.594 27.0368 178.744 26.9766 179.015 26.9766C179.302 26.9766 179.445 27.0443 179.445 27.1799C179.43 27.2553 179.415 27.3607 179.399 27.4963C179.384 27.6319 179.317 27.8729 179.196 28.2194C179.076 28.5659 178.948 28.8898 178.812 29.1911C178.676 29.4924 178.488 29.7786 178.247 30.0498C178.006 30.3209 177.735 30.5093 177.434 30.6147C177.313 30.6448 177.132 30.6599 176.891 30.6599C175.897 30.6599 175.211 30.2381 174.835 29.3945C174.805 29.4095 174.722 29.4848 174.586 29.6204C174.451 29.756 174.315 29.869 174.18 29.9594C174.044 30.0498 173.878 30.1628 173.682 30.2984C173.487 30.4339 173.268 30.5243 173.027 30.5695C172.786 30.6147 172.53 30.6524 172.259 30.6825C171.596 30.6825 171.008 30.5469 170.496 30.2758C169.713 29.8087 169.321 29.0103 169.321 27.8804C169.321 27.0217 169.585 25.8994 170.112 24.5134C170.639 23.1275 170.903 22.2462 170.903 21.8696C170.903 21.8545 170.903 21.8394 170.903 21.8244C170.903 21.6888 170.903 21.5984 170.903 21.5532C170.903 21.508 170.873 21.4553 170.813 21.395C170.752 21.3348 170.669 21.3046 170.564 21.3046H170.474C170.127 21.3046 169.811 21.4478 169.524 21.734C169.238 22.0202 169.012 22.329 168.847 22.6605C168.681 22.9919 168.553 23.3083 168.462 23.6096C168.372 23.9109 168.312 24.0766 168.282 24.1067C168.251 24.1368 168.131 24.1519 167.92 24.1519H167.604C167.513 24.0615 167.468 23.9937 167.468 23.9485Z" fill="#252323"/>
<path d="M185.071 16.0395C184.559 16.0395 184.288 16.0093 184.258 15.9491C184.243 15.9189 184.235 15.8587 184.235 15.7683C184.235 15.4067 184.318 15.1582 184.484 15.0226C184.514 15.0075 184.627 15 184.823 15C185.636 15.0452 186.593 15.0678 187.693 15.0678C189.817 15.0678 191.037 15.0452 191.353 15H191.625C191.715 15.0904 191.76 15.1582 191.76 15.2034C191.76 15.2486 191.745 15.3841 191.715 15.6101C191.64 15.8361 191.572 15.9792 191.512 16.0395H190.653C189.613 16.0545 189.003 16.1223 188.823 16.2428C188.717 16.3031 188.612 16.514 188.506 16.8756C188.401 17.2371 187.896 19.2257 186.992 22.8412C186.751 23.8205 186.495 24.8599 186.224 25.9597C185.953 27.0594 185.749 27.888 185.614 28.4454L185.41 29.2589C185.41 29.3191 185.478 29.3493 185.614 29.3493C185.749 29.3493 186.194 29.3643 186.947 29.3945H187.331C187.813 29.3945 188.197 29.3869 188.484 29.3719C188.77 29.3568 189.139 29.3041 189.591 29.2137C190.043 29.1233 190.419 28.9877 190.721 28.8069C191.022 28.6261 191.353 28.37 191.715 28.0386C192.077 27.7072 192.393 27.2929 192.664 26.7958C192.905 26.3438 193.131 25.8392 193.342 25.2818C193.553 24.7244 193.681 24.408 193.726 24.3327C193.801 24.2875 193.93 24.2649 194.11 24.2649H194.404C194.494 24.4005 194.54 24.4833 194.54 24.5134C194.54 24.5436 194.389 24.988 194.088 25.8467C193.786 26.7054 193.455 27.6093 193.093 28.5584C192.732 29.5074 192.536 30.0648 192.506 30.2306C192.476 30.3059 192.446 30.3511 192.415 30.3661C192.385 30.3812 192.265 30.4038 192.054 30.4339C191.843 30.4641 191.519 30.4716 191.082 30.4565C190.917 30.4565 190.344 30.4565 189.365 30.4565C188.386 30.4565 187.452 30.449 186.563 30.4339H182.54C181.275 30.4339 180.642 30.3586 180.642 30.208C180.642 30.1025 180.657 29.9971 180.687 29.8916C180.763 29.6054 180.838 29.4472 180.913 29.4171C180.974 29.402 181.087 29.3945 181.252 29.3945H181.388C181.795 29.3945 182.247 29.3719 182.744 29.3267C182.955 29.2815 183.098 29.1911 183.173 29.0555C183.218 28.9952 183.761 26.9012 184.8 22.7735C185.84 18.6457 186.359 16.4688 186.359 16.2428C186.359 16.1374 185.93 16.0696 185.071 16.0395Z" fill="#252323"/>
<path d="M179.58 52.6245C179.58 52.2478 179.437 52.0595 179.151 52.0595C178.789 52.0595 178.413 52.278 178.021 52.7149C177.629 53.1517 177.305 53.8221 177.049 54.726C177.034 54.7411 177.019 54.7637 177.004 54.7938C176.989 54.8239 176.982 54.8465 176.982 54.8616C176.982 54.8767 176.967 54.8917 176.936 54.9068C176.906 54.9219 176.884 54.9294 176.869 54.9294C176.854 54.9294 176.823 54.9294 176.778 54.9294C176.733 54.9294 176.673 54.9294 176.597 54.9294H176.281C176.191 54.839 176.145 54.7712 176.145 54.726C176.145 54.6206 176.206 54.4021 176.326 54.0707C176.447 53.7393 176.628 53.3476 176.869 52.8956C177.11 52.4437 177.441 52.0595 177.863 51.7432C178.285 51.4268 178.759 51.2611 179.286 51.246C179.919 51.246 180.409 51.4268 180.755 51.7884C181.102 52.1499 181.283 52.5717 181.298 53.0538C181.298 53.3099 181.275 53.5058 181.23 53.6413C181.23 53.7317 181.117 54.0632 180.891 54.6356C180.665 55.2081 180.431 55.8785 180.19 56.6468C179.949 57.4151 179.814 58.0855 179.784 58.6579C179.784 59.0647 179.821 59.3961 179.897 59.6522C180.092 60.3 180.567 60.6239 181.32 60.6239C181.878 60.6239 182.397 60.3678 182.879 59.8556C183.362 59.3434 183.738 58.7483 184.009 58.0704C184.28 57.3925 184.499 56.7673 184.665 56.1948C184.83 55.6224 184.913 55.2081 184.913 54.952C184.913 54.6055 184.853 54.3042 184.732 54.0481C184.612 53.792 184.476 53.5961 184.326 53.4606C184.175 53.325 184.039 53.1894 183.919 53.0538C183.798 52.9182 183.738 52.7525 183.738 52.5567C183.738 52.2252 183.881 51.9164 184.168 51.6302C184.454 51.344 184.763 51.2008 185.094 51.2008C185.38 51.2008 185.636 51.3364 185.862 51.6076C186.088 51.8788 186.209 52.3156 186.224 52.9182C186.224 53.325 186.133 53.9502 185.953 54.7938C185.772 55.6374 185.493 56.579 185.117 57.6185C184.74 58.6579 184.205 59.5543 183.512 60.3075C182.819 61.0608 182.021 61.4449 181.117 61.46C180.153 61.46 179.384 61.2114 178.812 60.7143C178.255 60.2322 177.976 59.5166 177.976 58.5675C177.976 58.1005 178.036 57.6185 178.157 57.1213C178.277 56.6242 178.586 55.7429 179.083 54.4774C179.415 53.5133 179.58 52.8956 179.58 52.6245Z" fill="#252323"/>
<path d="M197.568 40.7383H164.734V39.3825H197.568V40.7383Z" fill="#252323"/>
</svg>
