<svg width="700" height="134" viewBox="0 0 700 134" fill="none" xmlns="http://www.w3.org/2000/svg">
<rect width="700" height="134" fill="white"/>
<rect x="191" y="22" width="318" height="88" fill="white"/>
<path d="M434.116 74.7061C434.116 74.2548 433.945 74.0291 433.602 74.0291C433.169 74.0291 432.717 74.2909 432.248 74.8145C431.778 75.338 431.39 76.1415 431.083 77.2247C431.065 77.2428 431.047 77.2699 431.029 77.306C431.011 77.3421 431.002 77.3692 431.002 77.3872C431.002 77.4053 430.984 77.4233 430.948 77.4414C430.912 77.4594 430.885 77.4685 430.867 77.4685C430.849 77.4685 430.812 77.4685 430.758 77.4685C430.704 77.4685 430.632 77.4685 430.542 77.4685H430.162C430.054 77.3601 430 77.2789 430 77.2247C430 77.0984 430.072 76.8366 430.217 76.4394C430.361 76.0422 430.578 75.5728 430.867 75.0311C431.155 74.4895 431.553 74.0291 432.058 73.65C432.564 73.2708 433.132 73.0722 433.764 73.0542C434.523 73.0542 435.109 73.2708 435.525 73.7041C435.94 74.1374 436.157 74.643 436.175 75.2207C436.175 75.5276 436.148 75.7623 436.093 75.9248C436.093 76.0331 435.958 76.4303 435.687 77.1164C435.416 77.8025 435.136 78.6059 434.848 79.5267C434.559 80.4474 434.396 81.2509 434.36 81.9369C434.36 82.4244 434.405 82.8216 434.496 83.1285C434.73 83.9049 435.299 84.293 436.202 84.293C436.87 84.293 437.493 83.9861 438.07 83.3723C438.648 82.7584 439.099 82.0453 439.424 81.2328C439.749 80.4204 440.011 79.6711 440.21 78.985C440.408 78.299 440.508 77.8025 440.508 77.4955C440.508 77.0803 440.435 76.7192 440.291 76.4123C440.147 76.1054 439.984 75.8707 439.804 75.7082C439.623 75.5457 439.46 75.3832 439.316 75.2207C439.172 75.0582 439.099 74.8596 439.099 74.6249C439.099 74.2277 439.271 73.8576 439.614 73.5146C439.957 73.1715 440.327 73 440.724 73C441.067 73 441.374 73.1625 441.645 73.4875C441.916 73.8125 442.06 74.336 442.078 75.0582C442.078 75.5457 441.97 76.2949 441.753 77.306C441.537 78.317 441.203 79.4454 440.751 80.6912C440.3 81.9369 439.659 83.0112 438.829 83.9139C437.998 84.8166 437.041 85.277 435.958 85.295C434.802 85.295 433.882 84.9971 433.196 84.4014C432.528 83.8236 432.194 82.966 432.194 81.8286C432.194 81.2689 432.266 80.6912 432.41 80.0954C432.555 79.4996 432.925 78.4434 433.521 76.9268C433.918 75.7714 434.116 75.0311 434.116 74.7061Z" fill="#252323"/>
<path d="M456.418 68.1416L456.434 67.0216H416.084L416.068 68.1416H456.418Z" fill="#252323" stroke="#252323" stroke-width="0.13"/>
<path d="M419 54.2503C419 54.1041 419.082 53.8207 419.247 53.4003C419.411 52.9798 419.639 52.5045 419.931 51.9743C420.224 51.4442 420.626 50.9872 421.137 50.6033C421.648 50.2194 422.187 50.0183 422.753 50C423.594 50 424.224 50.2285 424.644 50.6855C425.064 51.1426 425.274 51.6818 425.274 52.3034C425.274 52.6325 424.963 53.6562 424.342 55.3746C423.721 57.093 423.411 58.3818 423.411 59.241C423.411 60.0271 423.539 60.5756 423.795 60.8863C424.05 61.1971 424.434 61.3616 424.945 61.3799C425.457 61.3982 425.941 61.2428 426.397 60.9138C426.854 60.5847 427.192 60.2739 427.411 59.9814L427.712 59.5153C427.749 59.4421 428.096 58.0528 428.753 55.3472C429.301 53.1535 429.63 51.8738 429.74 51.5082C429.849 51.1426 429.977 50.8775 430.123 50.713C430.434 50.4387 430.763 50.3016 431.11 50.3016C431.42 50.3016 431.648 50.393 431.795 50.5758C431.941 50.7587 432.014 50.9323 432.014 51.0969L429.932 59.8169C429.913 59.9083 429.904 60.0545 429.904 60.2556C429.904 60.7127 429.968 61.0143 430.096 61.1605C430.224 61.3068 430.416 61.3891 430.671 61.4073C431.073 61.3525 431.393 61.0691 431.63 60.5573C431.868 60.0454 432.142 59.241 432.452 58.1442C432.489 57.9979 432.671 57.9248 433 57.9248C433.347 57.9248 433.521 58.0071 433.521 58.1716C433.502 58.263 433.484 58.391 433.466 58.5555C433.448 58.72 433.365 59.0125 433.219 59.433C433.073 59.8535 432.918 60.2465 432.753 60.6121C432.589 60.9777 432.361 61.3251 432.069 61.6541C431.776 61.9832 431.448 62.2117 431.082 62.3397C430.936 62.3762 430.717 62.3945 430.425 62.3945C429.219 62.3945 428.388 61.8826 427.932 60.8589C427.895 60.8772 427.795 60.9686 427.63 61.1331C427.466 61.2977 427.301 61.4348 427.137 61.5444C426.973 61.6541 426.772 61.7912 426.534 61.9558C426.297 62.1203 426.032 62.23 425.74 62.2848C425.448 62.3397 425.137 62.3854 424.808 62.4219C424.005 62.4219 423.292 62.2574 422.671 61.9283C421.721 61.3616 421.247 60.3927 421.247 59.0217C421.247 57.9797 421.566 56.6177 422.205 54.9359C422.845 53.254 423.164 52.1846 423.164 51.7276C423.164 51.7093 423.164 51.691 423.164 51.6727C423.164 51.5082 423.164 51.3985 423.164 51.3437C423.164 51.2888 423.128 51.2248 423.055 51.1517C422.982 51.0786 422.881 51.042 422.753 51.042H422.644C422.224 51.042 421.84 51.2157 421.493 51.563C421.146 51.9104 420.872 52.2851 420.671 52.6873C420.47 53.0895 420.315 53.4734 420.205 53.839C420.096 54.2046 420.023 54.4057 419.986 54.4423C419.95 54.4788 419.804 54.4971 419.548 54.4971H419.164C419.055 54.3874 419 54.3052 419 54.2503Z" fill="#252323" stroke="#252323" stroke-width="0.16"/>
<path d="M444.37 44.2614C443.749 44.2614 443.42 44.2248 443.384 44.1517C443.365 44.1151 443.356 44.042 443.356 43.9323C443.356 43.4936 443.457 43.1919 443.658 43.0274C443.694 43.0091 443.831 43 444.068 43C445.055 43.0548 446.215 43.0823 447.548 43.0823C450.123 43.0823 451.603 43.0548 451.986 43H452.315C452.425 43.1097 452.48 43.1919 452.48 43.2468C452.48 43.3016 452.461 43.4662 452.425 43.7404C452.333 44.0146 452.251 44.1883 452.178 44.2614H451.137C449.877 44.2797 449.137 44.3619 448.918 44.5082C448.79 44.5813 448.662 44.8372 448.534 45.276C448.406 45.7147 447.795 48.1278 446.699 52.5153C446.406 53.7035 446.096 54.9649 445.767 56.2994C445.438 57.6339 445.192 58.6394 445.027 59.3158L444.781 60.303C444.781 60.3761 444.863 60.4126 445.027 60.4126C445.192 60.4126 445.731 60.4309 446.644 60.4675H447.11C447.694 60.4675 448.16 60.4584 448.507 60.4401C448.854 60.4218 449.301 60.3578 449.849 60.2481C450.397 60.1384 450.854 59.9739 451.219 59.7545C451.585 59.5352 451.986 59.2244 452.425 58.8222C452.863 58.42 453.247 57.9173 453.575 57.314C453.868 56.7656 454.142 56.1532 454.397 55.4768C454.653 54.8004 454.808 54.4165 454.863 54.3251C454.954 54.2702 455.11 54.2428 455.329 54.2428H455.685C455.795 54.4073 455.849 54.5079 455.849 54.5444C455.849 54.581 455.667 55.1203 455.301 56.1623C454.936 57.2043 454.534 58.3012 454.096 59.4529C453.658 60.6046 453.42 61.281 453.384 61.4821C453.347 61.5735 453.311 61.6283 453.274 61.6466C453.238 61.6649 453.091 61.6923 452.836 61.7289C452.58 61.7654 452.187 61.7746 451.658 61.7563C451.457 61.7563 450.763 61.7563 449.575 61.7563C448.388 61.7563 447.256 61.7472 446.178 61.7289H441.301C439.767 61.7289 439 61.6375 439 61.4547C439 61.3267 439.018 61.1987 439.055 61.0708C439.146 60.7234 439.237 60.5315 439.329 60.4949C439.402 60.4766 439.539 60.4675 439.74 60.4675H439.904C440.397 60.4675 440.945 60.4401 441.548 60.3852C441.804 60.3304 441.977 60.2207 442.068 60.0562C442.123 59.983 442.781 57.442 444.041 52.433C445.301 47.424 445.932 44.7824 445.932 44.5082C445.932 44.3802 445.411 44.2979 444.37 44.2614Z" fill="#252323" stroke="#252323" stroke-width="0.16"/>
<path d="M367.43 62.804C367.43 62.3267 367.246 62.0881 366.877 62.0881C366.41 62.0881 365.925 62.3649 365.419 62.9185C364.914 63.4721 364.496 64.3216 364.166 65.467C364.146 65.486 364.127 65.5147 364.108 65.5529C364.088 65.591 364.078 65.6197 364.078 65.6388C364.078 65.6579 364.059 65.6769 364.02 65.696C363.981 65.7151 363.952 65.7247 363.933 65.7247C363.913 65.7247 363.874 65.7247 363.816 65.7247C363.758 65.7247 363.68 65.7247 363.583 65.7247H363.175C363.058 65.6101 363 65.5242 363 65.467C363 65.3333 363.078 65.0565 363.233 64.6366C363.389 64.2166 363.622 63.7203 363.933 63.1476C364.244 62.5749 364.671 62.0881 365.215 61.6872C365.759 61.2863 366.371 61.0764 367.052 61.0573C367.868 61.0573 368.499 61.2863 368.946 61.7445C369.393 62.2026 369.626 62.7372 369.646 63.348C369.646 63.6725 369.617 63.9207 369.558 64.0925C369.558 64.207 369.413 64.627 369.121 65.3524C368.83 66.0778 368.528 66.9273 368.217 67.9009C367.907 68.8744 367.732 69.7239 367.693 70.4493C367.693 70.9648 367.741 71.3847 367.839 71.7093C368.091 72.5301 368.703 72.9405 369.675 72.9405C370.394 72.9405 371.064 72.616 371.686 71.967C372.308 71.3179 372.794 70.5639 373.143 69.7048C373.493 68.8458 373.775 68.0536 373.989 67.3282C374.203 66.6028 374.309 66.0778 374.309 65.7533C374.309 65.3142 374.232 64.9325 374.076 64.6079C373.921 64.2834 373.746 64.0352 373.552 63.8634C373.357 63.6916 373.182 63.5198 373.027 63.348C372.871 63.1762 372.794 62.9662 372.794 62.7181C372.794 62.2981 372.978 61.9068 373.348 61.5441C373.717 61.1814 374.115 61 374.543 61C374.912 61 375.242 61.1718 375.534 61.5154C375.825 61.859 375.981 62.4126 376 63.1762C376 63.6916 375.883 64.4838 375.65 65.5529C375.417 66.6219 375.058 67.815 374.572 69.1322C374.086 70.4493 373.396 71.5852 372.502 72.5396C371.608 73.4941 370.578 73.9809 369.413 74C368.169 74 367.178 73.685 366.439 73.0551C365.72 72.4442 365.361 71.5374 365.361 70.3348C365.361 69.743 365.439 69.1322 365.594 68.5022C365.75 67.8722 366.148 66.7555 366.789 65.152C367.217 63.9302 367.43 63.1476 367.43 62.804Z" fill="#252323"/>
<path d="M329.723 55.3444C329.061 55.3444 328.711 55.3054 328.672 55.2275C328.653 55.1885 328.643 55.1106 328.643 54.9937C328.643 54.5261 328.75 54.2046 328.964 54.0292C329.003 54.0097 329.149 54 329.402 54C330.453 54.0584 331.689 54.0877 333.11 54.0877C335.855 54.0877 337.432 54.0584 337.841 54H338.191C338.308 54.1169 338.366 54.2046 338.366 54.263C338.366 54.3215 338.347 54.4968 338.308 54.7891C338.211 55.0813 338.123 55.2664 338.045 55.3444H336.936C335.592 55.3639 334.804 55.4515 334.57 55.6074C334.434 55.6853 334.298 55.9581 334.162 56.4257C334.025 56.8933 333.373 59.4652 332.205 64.1413C331.894 65.4077 331.563 66.7521 331.212 68.1744C330.862 69.5967 330.599 70.6683 330.424 71.3892L330.161 72.4413C330.161 72.5192 330.249 72.5582 330.424 72.5582C330.599 72.5582 331.173 72.5777 332.147 72.6167H332.643C333.266 72.6167 333.763 72.6069 334.132 72.5874C334.502 72.5679 334.979 72.4998 335.563 72.3829C336.147 72.266 336.634 72.0906 337.023 71.8568C337.412 71.623 337.841 71.2918 338.308 70.8631C338.775 70.4345 339.184 69.8987 339.534 69.2557C339.846 68.6712 340.138 68.0185 340.41 67.2976C340.683 66.5767 340.848 66.1676 340.907 66.0701C341.004 66.0117 341.17 65.9825 341.403 65.9825H341.783C341.9 66.1578 341.958 66.265 341.958 66.3039C341.958 66.3429 341.763 66.9177 341.374 68.0283C340.985 69.1388 340.556 70.3078 340.089 71.5353C339.622 72.7628 339.369 73.4837 339.33 73.698C339.291 73.7954 339.252 73.8539 339.213 73.8734C339.174 73.8928 339.018 73.9221 338.746 73.961C338.473 74 338.055 74.0097 337.49 73.9903C337.276 73.9903 336.536 73.9903 335.271 73.9903C334.006 73.9903 332.799 73.9805 331.65 73.961H326.453C324.818 73.961 324 73.8636 324 73.6688C324 73.5324 324.019 73.396 324.058 73.2596C324.156 72.8894 324.253 72.6849 324.35 72.6459C324.428 72.6264 324.574 72.6167 324.788 72.6167H324.964C325.489 72.6167 326.073 72.5874 326.716 72.529C326.988 72.4705 327.173 72.3536 327.27 72.1783C327.329 72.1003 328.03 69.3921 329.373 64.0536C330.716 58.715 331.388 55.8997 331.388 55.6074C331.388 55.471 330.833 55.3833 329.723 55.3444Z" fill="#252323" stroke="#252323" stroke-width="0.16"/>
<path d="M248.677 55.3267C248.158 55.3267 247.851 55.3171 247.755 55.2979C247.659 55.2787 247.611 55.1729 247.611 54.9806C247.611 54.4615 247.716 54.1442 247.928 54.0289C247.966 54.0096 249.637 54 252.942 54C256.246 54.0192 258.033 54.0481 258.302 54.0865C259.377 54.2404 260.28 54.5096 261.01 54.8941C261.74 55.2787 262.259 55.7209 262.567 56.2208C262.874 56.7208 263.076 57.1342 263.172 57.461C263.268 57.7879 263.325 58.1148 263.345 58.4417C263.345 59.3069 263.066 60.1145 262.509 60.8644C261.952 61.6143 261.308 62.1911 260.578 62.5949C259.848 62.9987 259.205 63.3256 258.647 63.5755C258.09 63.8255 257.725 63.9505 257.552 63.9505L257.754 64.0947C259.041 64.8254 259.685 65.8829 259.685 67.2673C259.685 67.4788 259.637 68.0653 259.541 69.0267C259.445 69.9881 259.397 70.7764 259.397 71.3917V71.6513C259.397 71.9974 259.406 72.2666 259.425 72.4589C259.445 72.6511 259.55 72.8242 259.742 72.978C259.935 73.1318 260.184 73.2184 260.492 73.2376C261.03 73.2376 261.471 73.0261 261.817 72.6031C262.163 72.1801 262.413 71.7282 262.567 71.2475C262.663 70.9783 262.739 70.8149 262.797 70.7572C262.855 70.6995 262.999 70.6707 263.229 70.6707C263.614 70.6707 263.806 70.786 263.806 71.0168C263.806 71.3629 263.575 71.9109 263.114 72.6608C262.384 73.7568 261.52 74.3047 260.521 74.3047H260.261C259.089 74.3047 258.119 74.0644 257.351 73.5837C256.582 73.103 256.16 72.3531 256.083 71.334C256.083 70.8149 256.227 70.0073 256.515 68.9113C256.803 67.8153 256.947 67.1135 256.947 66.8058C256.947 65.8252 256.534 65.1138 255.708 64.6715C255.42 64.5369 255.18 64.46 254.988 64.4408C254.796 64.4216 254.114 64.4023 252.942 64.3831H250.953L250.031 68.1326C249.397 70.6707 249.08 71.9589 249.08 71.9974C249.08 72.0743 249.09 72.1224 249.109 72.1416C249.128 72.1608 249.196 72.1993 249.311 72.257C249.426 72.3147 249.589 72.3339 249.801 72.3147C250.012 72.2954 250.329 72.3147 250.752 72.3723H251.645C251.76 72.5262 251.818 72.6127 251.818 72.6319C251.818 72.6511 251.789 72.8242 251.731 73.1511C251.655 73.401 251.559 73.5837 251.443 73.6991H251.011C250.319 73.6606 249.061 73.6414 247.236 73.6414C246.583 73.6414 245.978 73.6414 245.421 73.6414C244.863 73.6414 244.422 73.6414 244.095 73.6414C243.768 73.6414 243.567 73.651 243.49 73.6702C243.163 73.6702 243 73.5837 243 73.4106C243 73.3722 243.029 73.2376 243.086 73.0069C243.183 72.6415 243.279 72.4396 243.375 72.4012C243.451 72.382 243.596 72.3723 243.807 72.3723H243.98C244.498 72.3723 245.075 72.3435 245.709 72.2858C245.978 72.2281 246.16 72.1128 246.256 71.9397C246.314 71.8628 247.006 69.1901 248.331 63.9216C249.657 58.6532 250.319 55.8747 250.319 55.5863C250.319 55.4517 249.772 55.3652 248.677 55.3267ZM260.204 57.7206C260.204 57.1053 260.002 56.5862 259.598 56.1632C259.195 55.7401 258.369 55.471 257.12 55.3556C257.082 55.3556 256.861 55.3556 256.457 55.3556C256.054 55.3556 255.689 55.346 255.362 55.3267H254.728C253.825 55.3267 253.307 55.4229 253.172 55.6152C253.153 55.6728 252.826 56.9515 252.193 59.4511C251.559 61.9508 251.242 63.2294 251.242 63.2871C251.242 63.3064 251.904 63.316 253.23 63.316C254.728 63.2967 255.727 63.2294 256.227 63.1141C257.456 62.9218 258.417 62.3546 259.109 61.4124C259.416 60.9702 259.675 60.3933 259.887 59.6819C260.098 58.9704 260.204 58.3167 260.204 57.7206Z" fill="#252323" stroke="#252323" stroke-width="0.16"/>
<path d="M266 68.8642C266 67.7739 266.179 66.7792 266.536 65.8802C266.893 64.9812 267.354 64.2352 267.918 63.6423C268.481 63.0493 269.111 62.552 269.807 62.1503C270.502 61.7486 271.16 61.4521 271.781 61.2608C272.401 61.0696 272.993 60.9835 273.557 61.0026H273.642C274.488 61.0026 275.221 61.213 275.841 61.6338C276.462 62.0546 276.772 62.6763 276.772 63.4988C276.772 65.2203 275.729 66.3488 273.642 66.8844C272.721 67.1331 271.461 67.267 269.863 67.2861C269.168 67.2861 268.81 67.3052 268.792 67.3435C268.792 67.3818 268.735 67.7165 268.622 68.3477C268.51 68.9789 268.444 69.5336 268.425 70.0118C268.425 70.9108 268.622 71.6186 269.017 72.135C269.412 72.6515 270.004 72.9193 270.794 72.9384C271.583 72.9575 272.457 72.7758 273.416 72.3933C274.375 72.0107 275.24 71.3795 276.01 70.4996C276.18 70.3083 276.292 70.2127 276.349 70.2127C276.424 70.2127 276.546 70.2988 276.715 70.4709C276.885 70.6431 276.979 70.777 276.997 70.8726C277.016 70.9682 276.932 71.1213 276.744 71.3317C276.556 71.5421 276.274 71.8003 275.898 72.1063C275.522 72.4124 275.089 72.7089 274.601 72.9958C274.112 73.2827 273.52 73.5218 272.824 73.7131C272.128 73.9044 271.414 74 270.681 74C269.196 74 268.049 73.4931 267.241 72.4793C266.432 71.4656 266.019 70.2605 266 68.8642ZM275.418 63.5562C275.306 62.5615 274.666 62.0642 273.501 62.0642C272.88 62.0642 272.307 62.1981 271.781 62.4659C271.254 62.7337 270.831 63.0589 270.512 63.4414C270.192 63.824 269.92 64.2161 269.694 64.6178C269.468 65.0195 269.318 65.3638 269.243 65.6507C269.168 65.9376 269.121 66.1193 269.102 66.1958C269.102 66.215 269.29 66.2245 269.666 66.2245C271.79 66.2245 273.275 65.995 274.121 65.5359C274.967 65.0768 275.4 64.4169 275.418 63.5562Z" fill="#252323" stroke="#252323" stroke-width="0.16"/>
<path d="M279 66C279 64.804 279.087 63.6687 279.26 62.594C279.433 61.5193 279.632 60.592 279.857 59.812C280.083 59.032 280.403 58.2693 280.819 57.524C281.235 56.7787 281.564 56.198 281.806 55.782C282.049 55.366 282.412 54.9153 282.897 54.43C283.383 53.9447 283.668 53.65 283.755 53.546C283.842 53.442 284.058 53.26 284.405 53H284.742H284.846C285.089 53 285.21 53.078 285.21 53.234C285.21 53.286 285.063 53.468 284.768 53.78C284.474 54.092 284.119 54.5513 283.703 55.158C283.287 55.7647 282.863 56.51 282.43 57.394C281.997 58.278 281.633 59.474 281.338 60.982C281.044 62.49 280.897 64.1627 280.897 66C280.897 67.8373 281.044 69.5013 281.338 70.992C281.633 72.4827 281.988 73.6873 282.404 74.606C282.82 75.5247 283.244 76.27 283.677 76.842C284.11 77.414 284.474 77.8733 284.768 78.22C285.063 78.5667 285.21 78.7487 285.21 78.766C285.21 78.922 285.08 79 284.82 79H284.742H284.405L283.677 78.376C282.049 76.9027 280.862 75.0653 280.117 72.864C279.372 70.6627 279 68.3747 279 66Z" fill="#252323" stroke="#252323" stroke-width="0.16"/>
<path d="M287 65.8701C287 65.717 287.086 65.4205 287.258 64.9804C287.43 64.5404 287.669 64.043 287.975 63.4882C288.281 62.9333 288.701 62.455 289.236 62.0533C289.772 61.6515 290.336 61.4411 290.928 61.4219C291.807 61.4219 292.467 61.6611 292.907 62.1394C293.346 62.6177 293.566 63.1821 293.566 63.8325C293.566 64.1769 293.241 65.2483 292.591 67.0467C291.941 68.845 291.616 70.1938 291.616 71.093C291.616 71.9157 291.75 72.4896 292.018 72.8149C292.285 73.1401 292.687 73.3123 293.222 73.3314C293.757 73.3506 294.264 73.1879 294.742 72.8436C295.219 72.4992 295.573 72.174 295.802 71.8679L296.118 71.38C296.156 71.3035 296.519 69.8495 297.207 67.018C297.781 64.7222 298.125 63.3829 298.24 63.0003C298.354 62.6177 298.488 62.3403 298.641 62.1681C298.966 61.8811 299.31 61.7376 299.673 61.7376C299.998 61.7376 300.237 61.8333 300.39 62.0246C300.543 62.2159 300.619 62.3977 300.619 62.5698L298.44 71.6957C298.421 71.7913 298.412 71.9444 298.412 72.1548C298.412 72.6331 298.479 72.9488 298.612 73.1018C298.746 73.2549 298.947 73.341 299.214 73.3601C299.635 73.3027 299.969 73.0062 300.218 72.4705C300.466 71.9348 300.753 71.093 301.078 69.9451C301.116 69.7921 301.308 69.7155 301.652 69.7155C302.015 69.7155 302.196 69.8016 302.196 69.9738C302.177 70.0695 302.158 70.2034 302.139 70.3756C302.12 70.5478 302.034 70.8539 301.881 71.2939C301.728 71.7339 301.566 72.1453 301.394 72.5279C301.222 72.9105 300.983 73.274 300.677 73.6184C300.371 73.9628 300.027 74.2019 299.645 74.3358C299.492 74.3741 299.262 74.3932 298.956 74.3932C297.695 74.3932 296.825 73.8576 296.347 72.7862C296.309 72.8053 296.204 72.901 296.032 73.0732C295.86 73.2453 295.688 73.3888 295.516 73.5036C295.344 73.6184 295.133 73.7619 294.885 73.9341C294.636 74.1063 294.359 74.2211 294.053 74.2784C293.748 74.3358 293.423 74.3837 293.079 74.4219C292.237 74.4219 291.492 74.2498 290.842 73.9054C289.848 73.3123 289.351 72.2983 289.351 70.8634C289.351 69.7729 289.686 68.3476 290.355 66.5875C291.024 64.8274 291.358 63.7082 291.358 63.2299C291.358 63.2108 291.358 63.1916 291.358 63.1725C291.358 63.0003 291.358 62.8855 291.358 62.8281C291.358 62.7707 291.32 62.7038 291.244 62.6272C291.167 62.5507 291.062 62.5124 290.928 62.5124H290.813C290.374 62.5124 289.972 62.6942 289.609 63.0577C289.246 63.4212 288.959 63.8134 288.749 64.2343C288.539 64.6552 288.376 65.057 288.262 65.4396C288.147 65.8222 288.07 66.0327 288.032 66.0709C287.994 66.1092 287.841 66.1283 287.573 66.1283H287.172C287.057 66.0135 287 65.9275 287 65.8701Z" fill="#252323" stroke="#252323" stroke-width="0.16"/>
<path d="M378.13 53.026L378.234 53C378.32 53 378.407 53 378.494 53H378.805L379.533 53.624C381.161 55.0973 382.347 56.9347 383.092 59.136C383.836 61.3373 384.209 63.6253 384.209 66C384.209 67.1787 384.122 68.314 383.949 69.406C383.776 70.498 383.576 71.4253 383.351 72.188C383.126 72.9507 382.806 73.7133 382.39 74.476C381.975 75.2387 381.645 75.8193 381.403 76.218C381.161 76.6167 380.806 77.0587 380.338 77.544C379.87 78.0293 379.593 78.3153 379.507 78.402C379.42 78.4887 379.221 78.6533 378.909 78.896C378.857 78.948 378.823 78.9827 378.805 79H378.494C378.355 79 378.26 79 378.208 79C378.156 79 378.113 78.974 378.078 78.922C378.043 78.87 378.017 78.792 378 78.688C378.017 78.6707 378.113 78.558 378.286 78.35C380.97 75.5593 382.312 71.4427 382.312 66C382.312 60.5573 380.97 56.4407 378.286 53.65C378.113 53.442 378.017 53.3293 378 53.312C378 53.1733 378.043 53.078 378.13 53.026Z" fill="#252323" stroke="#252323" stroke-width="0.16"/>
<path d="M305.5 71.5L304.5 77.5H306L308 71.5H305.5Z" fill="#252323" stroke="#252323"/>
<path d="M345 71.5L344 77.5H345.5L347.5 71.5H345Z" fill="#252323" stroke="#252323"/>
<path d="M395 61C395 61.0455 395 60 395 60H409V62H401.99H395C395 62 395 60.9545 395 61ZM395 67C395 66.6581 395 66 395 66H409C409 66 409 66.7721 409 67C409 67.2963 409 68 409 68H401.99H395C395 68 395 67.2963 395 67Z" fill="#252323" stroke="#252323" stroke-width="0.16"/>
</svg>
