<svg width="700" height="134" viewBox="0 0 700 134" fill="none" xmlns="http://www.w3.org/2000/svg">
<rect width="700" height="134" fill="white"/>
<rect x="191" y="23" width="318" height="88" fill="white"/>
<path d="M223.397 55.7983C222.904 55.7983 222.612 55.7892 222.521 55.7709C222.429 55.7526 222.384 55.6521 222.384 55.4693C222.384 54.9757 222.484 54.674 222.685 54.5644C222.721 54.5461 224.311 54.5369 227.452 54.5369C230.594 54.5552 232.292 54.5826 232.548 54.6192C233.571 54.7655 234.429 55.0214 235.123 55.387C235.817 55.7526 236.311 56.1731 236.603 56.6484C236.895 57.1237 237.087 57.5167 237.178 57.8275C237.27 58.1383 237.324 58.4491 237.343 58.7599C237.343 59.5825 237.078 60.3503 236.548 61.0633C236.018 61.7762 235.407 62.3246 234.712 62.7085C234.018 63.0924 233.407 63.4032 232.877 63.6409C232.347 63.8785 232 63.9974 231.836 63.9974L232.027 64.1345C233.251 64.8291 233.863 65.8346 233.863 67.1508C233.863 67.3519 233.817 67.9095 233.726 68.8235C233.635 69.7376 233.589 70.4871 233.589 71.0721V71.3189C233.589 71.648 233.598 71.9039 233.617 72.0867C233.635 72.2695 233.735 72.434 233.918 72.5803C234.101 72.7265 234.338 72.8088 234.63 72.8271C235.142 72.8271 235.562 72.626 235.891 72.2238C236.219 71.8216 236.457 71.392 236.603 70.935C236.694 70.6791 236.767 70.5237 236.822 70.4688C236.877 70.414 237.014 70.3866 237.233 70.3866C237.598 70.3866 237.781 70.4963 237.781 70.7156C237.781 71.0447 237.562 71.5657 237.123 72.2786C236.429 73.3207 235.607 73.8417 234.658 73.8417H234.411C233.297 73.8417 232.375 73.6132 231.644 73.1561C230.913 72.6991 230.512 71.9862 230.438 71.0173C230.438 70.5237 230.575 69.7559 230.849 68.7139C231.123 67.6718 231.26 67.0046 231.26 66.7121C231.26 65.7798 230.868 65.1034 230.082 64.6829C229.808 64.5549 229.58 64.4818 229.397 64.4635C229.215 64.4452 228.566 64.427 227.452 64.4087H225.562L224.685 67.9735C224.082 70.3866 223.781 71.6114 223.781 71.648C223.781 71.7211 223.79 71.7668 223.808 71.7851C223.827 71.8033 223.89 71.8399 224 71.8947C224.11 71.9496 224.265 71.9679 224.466 71.9496C224.667 71.9313 224.968 71.9496 225.37 72.0044H226.219C226.329 72.1507 226.384 72.2329 226.384 72.2512C226.384 72.2695 226.356 72.434 226.301 72.7448C226.228 72.9825 226.137 73.1561 226.027 73.2658H225.616C224.959 73.2293 223.763 73.211 222.027 73.211C221.406 73.211 220.831 73.211 220.301 73.211C219.772 73.211 219.352 73.211 219.041 73.211C218.731 73.211 218.539 73.2201 218.466 73.2384C218.155 73.2384 218 73.1561 218 72.9916C218 72.955 218.027 72.8271 218.082 72.6077C218.174 72.2604 218.265 72.0684 218.356 72.0319C218.429 72.0136 218.566 72.0044 218.767 72.0044H218.932C219.425 72.0044 219.973 71.977 220.575 71.9222C220.831 71.8673 221.005 71.7576 221.096 71.5931C221.151 71.52 221.808 68.9789 223.069 63.9699C224.329 58.9609 224.959 56.3193 224.959 56.0451C224.959 55.9172 224.438 55.8349 223.397 55.7983ZM234.356 58.0743C234.356 57.4893 234.165 56.9957 233.781 56.5936C233.397 56.1914 232.612 55.9354 231.425 55.8258C231.388 55.8258 231.178 55.8258 230.795 55.8258C230.411 55.8258 230.064 55.8166 229.754 55.7983H229.151C228.292 55.7983 227.799 55.8897 227.671 56.0725C227.653 56.1274 227.343 57.3431 226.74 59.7196C226.137 62.0961 225.836 63.3118 225.836 63.3667C225.836 63.3849 226.466 63.3941 227.726 63.3941C229.151 63.3758 230.101 63.3118 230.575 63.2021C231.744 63.0193 232.658 62.48 233.315 61.5843C233.607 61.1638 233.854 60.6154 234.055 59.939C234.256 59.2626 234.356 58.641 234.356 58.0743Z" fill="#252323" stroke="#252323" stroke-width="0.16"/>
<path d="M240 68.659C240 67.617 240.174 66.6664 240.521 65.8072C240.868 64.948 241.315 64.235 241.863 63.6683C242.411 63.1016 243.023 62.6263 243.699 62.2424C244.374 61.8585 245.014 61.5751 245.616 61.3923C246.219 61.2095 246.795 61.1273 247.343 61.1455H247.425C248.247 61.1455 248.959 61.3466 249.562 61.7488C250.164 62.151 250.466 62.7451 250.466 63.5312C250.466 65.1765 249.452 66.2551 247.425 66.7669C246.53 67.0046 245.306 67.1326 243.753 67.1508C243.078 67.1508 242.731 67.1691 242.712 67.2057C242.712 67.2422 242.658 67.5622 242.548 68.1654C242.438 68.7687 242.374 69.2989 242.356 69.7559C242.356 70.6151 242.548 71.2915 242.932 71.7851C243.315 72.2787 243.89 72.5346 244.658 72.5529C245.425 72.5712 246.274 72.3975 247.206 72.0319C248.137 71.6663 248.977 71.063 249.726 70.2221C249.89 70.0392 250 69.9478 250.055 69.9478C250.128 69.9478 250.247 70.0301 250.411 70.1946C250.575 70.3592 250.667 70.4871 250.685 70.5785C250.703 70.6699 250.621 70.8162 250.438 71.0173C250.256 71.2184 249.982 71.4652 249.617 71.7577C249.251 72.0502 248.831 72.3335 248.356 72.6077C247.881 72.8819 247.306 73.1104 246.63 73.2933C245.954 73.4761 245.26 73.5675 244.548 73.5675C243.105 73.5675 241.991 73.083 241.205 72.1141C240.42 71.1452 240.018 69.9935 240 68.659ZM249.151 63.586C249.041 62.6354 248.42 62.1601 247.288 62.1601C246.685 62.1601 246.128 62.2881 245.616 62.544C245.105 62.8 244.694 63.1107 244.384 63.4764C244.073 63.842 243.808 64.2167 243.589 64.6006C243.37 64.9845 243.224 65.3136 243.151 65.5878C243.078 65.862 243.032 66.0357 243.014 66.1088C243.014 66.1271 243.196 66.1362 243.562 66.1362C245.626 66.1362 247.069 65.9169 247.89 65.4781C248.712 65.0394 249.132 64.4087 249.151 63.586Z" fill="#252323" stroke="#252323" stroke-width="0.16"/>
<path d="M253.233 66.4104C253.233 65.149 253.324 63.9516 253.507 62.8182C253.69 61.6848 253.9 60.7067 254.137 59.8841C254.375 59.0614 254.713 58.2571 255.151 57.471C255.589 56.6849 255.936 56.0725 256.192 55.6338C256.448 55.195 256.831 54.7197 257.343 54.2078C257.854 53.696 258.156 53.3852 258.247 53.2755C258.338 53.1658 258.566 52.9739 258.932 52.6997H259.288H259.398C259.653 52.6997 259.781 52.7819 259.781 52.9464C259.781 53.0013 259.626 53.1932 259.315 53.5223C259.005 53.8514 258.63 54.3358 258.192 54.9756C257.754 55.6155 257.306 56.4016 256.85 57.3339C256.393 58.2662 256.009 59.5276 255.699 61.1181C255.388 62.7085 255.233 64.4726 255.233 66.4104C255.233 68.3482 255.388 70.1032 255.699 71.6753C256.009 73.2475 256.384 74.518 256.822 75.4869C257.261 76.4558 257.708 77.2419 258.165 77.8452C258.621 78.4484 259.005 78.9329 259.315 79.2985C259.626 79.6641 259.781 79.8561 259.781 79.8744C259.781 80.0389 259.644 80.1212 259.37 80.1212H259.288H258.932L258.165 79.463C256.448 77.9092 255.197 75.9714 254.411 73.6497C253.626 71.328 253.233 68.9149 253.233 66.4104Z" fill="#252323" stroke="#252323" stroke-width="0.16"/>
<path d="M262.904 79.1888C262.302 79.1888 261.982 78.9146 261.945 78.3662C261.945 78.1834 262.402 76.2456 263.315 72.5528C264.228 68.8601 264.722 66.9589 264.795 66.8492C265.087 65.8437 265.589 64.8657 266.302 63.9151C267.58 62.3429 269.032 61.4289 270.658 61.1729C270.694 61.1729 270.767 61.1729 270.877 61.1729C270.987 61.1729 271.078 61.1638 271.151 61.1455C272.484 61.1455 273.507 61.5842 274.219 62.4617C274.932 63.3392 275.288 64.4178 275.288 65.6975C275.288 66.7395 275.069 67.7541 274.63 68.7413C274.192 69.7284 273.635 70.5602 272.959 71.2366C272.283 71.913 271.553 72.4706 270.767 72.9093C269.982 73.3481 269.26 73.5583 268.603 73.54H268.302H268.11C267.178 73.54 266.42 73.1287 265.836 72.306L265.699 72.1415L264.959 75.2127C264.502 76.986 264.238 77.9914 264.165 78.2291C264.092 78.4667 263.982 78.6587 263.836 78.8049C263.544 79.0609 263.233 79.1888 262.904 79.1888ZM272.932 64.4361C272.932 63.7597 272.777 63.2113 272.466 62.7908C272.155 62.3703 271.699 62.1601 271.096 62.1601C270.457 62.1601 269.818 62.4252 269.178 62.9553C268.539 63.4855 268.028 64.1801 267.644 65.0394C267.388 65.6061 267.041 66.7943 266.603 68.6041L266.137 70.4688C266.448 71.8582 267.215 72.5528 268.439 72.5528C269.133 72.5528 269.808 72.2238 270.466 71.5657C271.069 71.0172 271.571 70.1397 271.973 68.9332C272.375 67.7267 272.64 66.7395 272.767 65.9717C272.895 65.2039 272.95 64.692 272.932 64.4361Z" fill="#252323" stroke="#252323" stroke-width="0.16"/>
<path d="M297 65.3958C297 65.2496 297.082 64.9662 297.247 64.5457C297.411 64.1253 297.639 63.65 297.931 63.1198C298.224 62.5897 298.626 62.1326 299.137 61.7487C299.648 61.3648 300.187 61.1638 300.753 61.1455C301.594 61.1455 302.224 61.374 302.644 61.831C303.064 62.288 303.274 62.8273 303.274 63.4489C303.274 63.7779 302.963 64.8017 302.342 66.5201C301.721 68.2385 301.411 69.5273 301.411 70.3865C301.411 71.1726 301.539 71.721 301.794 72.0318C302.05 72.3426 302.434 72.5071 302.945 72.5254C303.457 72.5437 303.941 72.3883 304.397 72.0592C304.854 71.7302 305.192 71.4194 305.411 71.1269L305.712 70.6607C305.749 70.5876 306.096 69.1983 306.753 66.4927C307.301 64.2989 307.63 63.0193 307.74 62.6537C307.849 62.288 307.977 62.023 308.123 61.8584C308.434 61.5842 308.763 61.4471 309.11 61.4471C309.42 61.4471 309.648 61.5385 309.795 61.7213C309.941 61.9041 310.014 62.0778 310.014 62.2423L307.932 70.9624C307.913 71.0538 307.904 71.2 307.904 71.4011C307.904 71.8581 307.968 72.1598 308.096 72.306C308.224 72.4523 308.416 72.5345 308.671 72.5528C309.073 72.498 309.393 72.2146 309.63 71.7028C309.868 71.1909 310.142 70.3865 310.452 69.2897C310.489 69.1434 310.671 69.0703 311 69.0703C311.347 69.0703 311.521 69.1526 311.521 69.3171C311.502 69.4085 311.484 69.5365 311.466 69.701C311.448 69.8655 311.365 70.158 311.219 70.5785C311.073 70.9989 310.918 71.392 310.753 71.7576C310.589 72.1232 310.361 72.4706 310.069 72.7996C309.776 73.1287 309.448 73.3572 309.082 73.4851C308.936 73.5217 308.717 73.54 308.425 73.54C307.219 73.54 306.388 73.0281 305.932 72.0044C305.895 72.0227 305.795 72.1141 305.63 72.2786C305.466 72.4431 305.301 72.5802 305.137 72.6899C304.973 72.7996 304.772 72.9367 304.534 73.1012C304.297 73.2658 304.032 73.3755 303.74 73.4303C303.447 73.4851 303.137 73.5309 302.808 73.5674C302.005 73.5674 301.292 73.4029 300.671 73.0738C299.721 72.5071 299.247 71.5382 299.247 70.1671C299.247 69.1251 299.566 67.7632 300.205 66.0813C300.845 64.3995 301.164 63.3301 301.164 62.873C301.164 62.8547 301.164 62.8365 301.164 62.8182C301.164 62.6537 301.164 62.544 301.164 62.4891C301.164 62.4343 301.128 62.3703 301.055 62.2972C300.982 62.2241 300.881 62.1875 300.753 62.1875H300.644C300.224 62.1875 299.84 62.3612 299.493 62.7085C299.146 63.0558 298.872 63.4306 298.671 63.8328C298.47 64.235 298.315 64.6189 298.205 64.9845C298.096 65.3501 298.023 65.5512 297.986 65.5878C297.95 65.6243 297.804 65.6426 297.548 65.6426H297.164C297.055 65.5329 297 65.4507 297 65.3958Z" fill="#252323" stroke="#252323" stroke-width="0.16"/>
<path d="M338.37 55.7983C337.749 55.7983 337.42 55.7618 337.384 55.6886C337.365 55.6521 337.356 55.5789 337.356 55.4693C337.356 55.0305 337.457 54.7289 337.658 54.5643C337.694 54.5461 337.831 54.5369 338.068 54.5369C339.055 54.5918 340.215 54.6192 341.548 54.6192C344.123 54.6192 345.603 54.5918 345.986 54.5369H346.315C346.425 54.6466 346.479 54.7289 346.479 54.7837C346.479 54.8386 346.461 55.0031 346.425 55.2773C346.333 55.5515 346.251 55.7252 346.178 55.7983H345.137C343.877 55.8166 343.137 55.8989 342.918 56.0451C342.79 56.1182 342.662 56.3742 342.534 56.8129C342.406 57.2517 341.795 59.6647 340.699 64.0522C340.406 65.2404 340.096 66.5018 339.767 67.8363C339.438 69.1709 339.192 70.1763 339.027 70.8527L338.781 71.8399C338.781 71.913 338.863 71.9496 339.027 71.9496C339.192 71.9496 339.731 71.9679 340.644 72.0044H341.11C341.694 72.0044 342.16 71.9953 342.507 71.977C342.854 71.9587 343.301 71.8947 343.849 71.785C344.397 71.6754 344.854 71.5108 345.219 71.2915C345.585 71.0721 345.986 70.7613 346.425 70.3591C346.863 69.9569 347.247 69.4542 347.575 68.8509C347.868 68.3025 348.142 67.6901 348.397 67.0137C348.653 66.3373 348.808 65.9534 348.863 65.862C348.954 65.8072 349.11 65.7797 349.329 65.7797H349.685C349.795 65.9443 349.849 66.0448 349.849 66.0814C349.849 66.1179 349.667 66.6572 349.301 67.6992C348.936 68.7413 348.534 69.8381 348.096 70.9898C347.658 72.1415 347.42 72.8179 347.384 73.019C347.347 73.1104 347.311 73.1653 347.274 73.1835C347.237 73.2018 347.091 73.2292 346.836 73.2658C346.58 73.3024 346.187 73.3115 345.658 73.2932C345.457 73.2932 344.763 73.2932 343.575 73.2932C342.388 73.2932 341.256 73.2841 340.178 73.2658H335.301C333.767 73.2658 333 73.1744 333 72.9916C333 72.8636 333.018 72.7357 333.055 72.6077C333.146 72.2604 333.237 72.0684 333.329 72.0318C333.402 72.0136 333.539 72.0044 333.74 72.0044H333.904C334.397 72.0044 334.945 71.977 335.548 71.9222C335.804 71.8673 335.977 71.7576 336.068 71.5931C336.123 71.52 336.781 68.9789 338.041 63.9699C339.301 58.9609 339.931 56.3193 339.931 56.0451C339.931 55.9171 339.411 55.8349 338.37 55.7983Z" fill="#252323" stroke="#252323" stroke-width="0.16"/>
<path d="M373.959 79.1888C373.703 79.1888 373.484 79.1157 373.301 78.9695C373.119 78.8232 373.018 78.6221 373 78.3662C373 78.1834 373.667 75.423 375 70.0849C376.333 64.7469 377.036 62.023 377.11 61.9133C377.347 61.4014 377.767 61.1455 378.37 61.1455C378.589 61.1638 378.772 61.2278 378.918 61.3374C379.064 61.4471 379.155 61.5568 379.192 61.6665C379.228 61.7762 379.247 61.8676 379.247 61.9407C379.247 62.1601 378.963 63.3849 378.397 65.6152C377.831 67.8455 377.53 69.0977 377.493 69.3719C377.457 69.573 377.438 69.893 377.438 70.3317V70.5511C377.438 71.8856 378.05 72.5528 379.274 72.5528C379.438 72.5528 379.603 72.5437 379.767 72.5254C379.931 72.5071 380.087 72.4706 380.233 72.4157C380.379 72.3609 380.516 72.2969 380.644 72.2238C380.772 72.1507 380.89 72.0867 381 72.0318C381.11 71.977 381.219 71.8856 381.329 71.7576C381.438 71.6297 381.539 71.5382 381.63 71.4834C381.721 71.4286 381.813 71.3189 381.904 71.1543C381.995 70.9898 382.068 70.8893 382.123 70.8527C382.178 70.8161 382.26 70.7065 382.37 70.5237L382.562 70.2494L383.548 66.3282C384.206 63.7323 384.571 62.352 384.644 62.1875C384.881 61.6939 385.274 61.4471 385.822 61.4471C386.059 61.4471 386.251 61.5111 386.397 61.6391C386.543 61.7671 386.644 61.8767 386.699 61.9681C386.753 62.0595 386.772 62.151 386.753 62.2424L384.671 70.9624C384.653 71.0538 384.644 71.2 384.644 71.4011C384.644 71.8582 384.708 72.1598 384.836 72.306C384.963 72.4523 385.155 72.5346 385.411 72.5528C385.575 72.5346 385.758 72.4523 385.959 72.306C386.343 71.9404 386.717 71.0629 387.082 69.6736C387.192 69.308 387.283 69.116 387.356 69.0977C387.393 69.0795 387.484 69.0703 387.63 69.0703H387.74C388.087 69.0703 388.26 69.1526 388.26 69.3171C388.26 69.4268 388.215 69.6736 388.123 70.0575C388.032 70.4414 387.849 70.935 387.575 71.5382C387.301 72.1415 387.009 72.5985 386.699 72.9093C386.461 73.147 386.169 73.3389 385.822 73.4852C385.676 73.5217 385.457 73.54 385.164 73.54C384.781 73.54 384.434 73.4852 384.123 73.3755C383.813 73.2658 383.566 73.1287 383.384 72.9642C383.201 72.7996 383.046 72.6351 382.918 72.4706C382.79 72.306 382.708 72.1689 382.671 72.0593C382.635 71.9496 382.616 71.8856 382.616 71.8673L382.452 72.0318C382.342 72.1415 382.178 72.2786 381.959 72.4432C381.74 72.6077 381.502 72.7722 381.247 72.9367C380.991 73.1013 380.662 73.2475 380.26 73.3755C379.858 73.5035 379.475 73.5674 379.11 73.5674C378.251 73.5674 377.402 73.3572 376.562 72.9367L375.904 75.5966C375.521 77.0957 375.292 77.964 375.219 78.2017C375.146 78.4393 375.036 78.6404 374.89 78.8049C374.598 79.0609 374.288 79.1888 373.959 79.1888Z" fill="#252323" stroke="#252323" stroke-width="0.16"/>
<path d="M390.137 52.7271L390.247 52.6997C390.338 52.6997 390.429 52.6997 390.52 52.6997H390.849L391.616 53.3578C393.333 54.9117 394.584 56.8494 395.37 59.1711C396.155 61.4928 396.548 63.9059 396.548 66.4104C396.548 67.6535 396.457 68.8509 396.274 70.0026C396.091 71.1543 395.881 72.1324 395.644 72.9367C395.406 73.7411 395.068 74.5455 394.63 75.3498C394.192 76.1542 393.845 76.7666 393.589 77.1871C393.333 77.6075 392.959 78.0737 392.466 78.5856C391.973 79.0974 391.68 79.3991 391.589 79.4905C391.498 79.5819 391.288 79.7555 390.959 80.0115C390.904 80.0663 390.868 80.1029 390.849 80.1212H390.52C390.374 80.1212 390.274 80.1212 390.219 80.1212C390.164 80.1212 390.119 80.0937 390.082 80.0389C390.046 79.984 390.018 79.9018 390 79.7921C390.018 79.7738 390.119 79.655 390.301 79.4356C393.132 76.4924 394.548 72.1506 394.548 66.4104C394.548 60.6702 393.132 56.3284 390.301 53.3852C390.119 53.1658 390.018 53.047 390 53.0287C390 52.8825 390.046 52.7819 390.137 52.7271Z" fill="#252323" stroke="#252323" stroke-width="0.16"/>
<path d="M407 61C407 61.0455 407 60 407 60H421V62H413.989H407C407 62 407 60.9545 407 61ZM407 67C407 66.6581 407 66 407 66H421C421 66 421 66.7721 421 67C421 67.2963 421 68 421 68H413.989H407C407 68 407 67.2963 407 67Z" fill="#252323" stroke="#252323" stroke-width="0.16"/>
<path d="M432.959 63.0433C432.356 63.0433 432.037 62.7691 432 62.2207C432 62.0379 432.457 60.1001 433.37 56.4073C434.283 52.7146 434.776 50.8133 434.849 50.7037C435.142 49.6982 435.644 48.7202 436.356 47.7696C437.635 46.1974 439.087 45.2833 440.712 45.0274C440.749 45.0274 440.822 45.0274 440.932 45.0274C441.041 45.0274 441.132 45.0183 441.206 45C442.539 45 443.562 45.4387 444.274 46.3162C444.986 47.1937 445.343 48.2723 445.343 49.552C445.343 50.594 445.123 51.6086 444.685 52.5957C444.247 53.5829 443.69 54.4147 443.014 55.0911C442.338 55.7675 441.607 56.3251 440.822 56.7638C440.037 57.2026 439.315 57.4128 438.658 57.3945H438.356H438.164C437.233 57.3945 436.475 56.9832 435.89 56.1605L435.753 55.996L435.014 59.0672C434.557 60.8405 434.292 61.8459 434.219 62.0836C434.146 62.3212 434.037 62.5132 433.89 62.6594C433.598 62.9154 433.288 63.0433 432.959 63.0433ZM442.986 48.2906C442.986 47.6142 442.831 47.0657 442.521 46.6453C442.21 46.2248 441.753 46.0146 441.151 46.0146C440.511 46.0146 439.872 46.2797 439.233 46.8098C438.594 47.34 438.082 48.0346 437.699 48.8938C437.443 49.4606 437.096 50.6488 436.658 52.4586L436.192 54.3233C436.502 55.7127 437.269 56.4073 438.493 56.4073C439.187 56.4073 439.863 56.0783 440.521 55.4202C441.123 54.8717 441.626 53.9942 442.027 52.7877C442.429 51.5811 442.694 50.594 442.822 49.8262C442.95 49.0584 443.005 48.5465 442.986 48.2906Z" fill="#252323" stroke="#252323" stroke-width="0.16"/>
<path d="M449 51.2503C449 51.1041 449.082 50.8207 449.247 50.4003C449.411 49.9798 449.639 49.5045 449.932 48.9743C450.224 48.4442 450.626 47.9872 451.137 47.6033C451.648 47.2194 452.187 47.0183 452.753 47C453.594 47 454.224 47.2285 454.644 47.6855C455.064 48.1426 455.274 48.6818 455.274 49.3034C455.274 49.6325 454.964 50.6562 454.343 52.3746C453.721 54.093 453.411 55.3818 453.411 56.241C453.411 57.0271 453.539 57.5756 453.795 57.8863C454.05 58.1971 454.434 58.3616 454.945 58.3799C455.457 58.3982 455.941 58.2428 456.397 57.9138C456.854 57.5847 457.192 57.2739 457.411 56.9814L457.712 56.5153C457.749 56.4421 458.096 55.0528 458.753 52.3472C459.301 50.1535 459.63 48.8738 459.74 48.5082C459.849 48.1426 459.977 47.8775 460.123 47.713C460.434 47.4387 460.763 47.3016 461.11 47.3016C461.42 47.3016 461.648 47.393 461.795 47.5758C461.941 47.7587 462.014 47.9323 462.014 48.0969L459.932 56.8169C459.913 56.9083 459.904 57.0545 459.904 57.2556C459.904 57.7127 459.968 58.0143 460.096 58.1605C460.224 58.3068 460.416 58.3891 460.671 58.4073C461.073 58.3525 461.393 58.0691 461.63 57.5573C461.868 57.0454 462.142 56.241 462.452 55.1442C462.489 54.9979 462.671 54.9248 463 54.9248C463.347 54.9248 463.521 55.0071 463.521 55.1716C463.502 55.263 463.484 55.391 463.466 55.5555C463.448 55.72 463.365 56.0125 463.219 56.433C463.073 56.8535 462.918 57.2465 462.754 57.6121C462.589 57.9777 462.361 58.3251 462.069 58.6541C461.776 58.9832 461.448 59.2117 461.082 59.3397C460.936 59.3762 460.717 59.3945 460.425 59.3945C459.219 59.3945 458.388 58.8826 457.932 57.8589C457.895 57.8772 457.795 57.9686 457.63 58.1331C457.466 58.2977 457.301 58.4348 457.137 58.5444C456.973 58.6541 456.772 58.7912 456.534 58.9558C456.297 59.1203 456.032 59.23 455.74 59.2848C455.448 59.3397 455.137 59.3854 454.808 59.4219C454.005 59.4219 453.292 59.2574 452.671 58.9283C451.721 58.3616 451.247 57.3927 451.247 56.0217C451.247 54.9797 451.566 53.6177 452.206 51.9359C452.845 50.254 453.164 49.1846 453.164 48.7276C453.164 48.7093 453.164 48.691 453.164 48.6727C453.164 48.5082 453.164 48.3985 453.164 48.3437C453.164 48.2888 453.128 48.2248 453.055 48.1517C452.982 48.0786 452.881 48.042 452.753 48.042H452.644C452.224 48.042 451.84 48.2157 451.493 48.563C451.146 48.9104 450.872 49.2851 450.671 49.6873C450.47 50.0895 450.315 50.4734 450.205 50.839C450.096 51.2046 450.023 51.4057 449.986 51.4423C449.95 51.4788 449.804 51.4971 449.548 51.4971H449.164C449.055 51.3874 449 51.3052 449 51.2503Z" fill="#252323" stroke="#252323" stroke-width="0.16"/>
<path d="M472.37 41.2614C471.749 41.2614 471.42 41.2248 471.384 41.1517C471.365 41.1151 471.356 41.042 471.356 40.9323C471.356 40.4936 471.457 40.1919 471.658 40.0274C471.694 40.0091 471.831 40 472.069 40C473.055 40.0548 474.215 40.0823 475.548 40.0823C478.123 40.0823 479.603 40.0548 479.986 40H480.315C480.425 40.1097 480.48 40.1919 480.48 40.2468C480.48 40.3016 480.461 40.4662 480.425 40.7404C480.333 41.0146 480.251 41.1883 480.178 41.2614H479.137C477.877 41.2797 477.137 41.3619 476.918 41.5082C476.79 41.5813 476.662 41.8372 476.534 42.276C476.406 42.7147 475.795 45.1278 474.699 49.5153C474.406 50.7035 474.096 51.9649 473.767 53.2994C473.438 54.6339 473.192 55.6394 473.027 56.3158L472.781 57.303C472.781 57.3761 472.863 57.4126 473.027 57.4126C473.192 57.4126 473.731 57.4309 474.644 57.4675H475.11C475.694 57.4675 476.16 57.4584 476.507 57.4401C476.854 57.4218 477.301 57.3578 477.849 57.2481C478.397 57.1384 478.854 56.9739 479.219 56.7545C479.585 56.5352 479.986 56.2244 480.425 55.8222C480.863 55.42 481.247 54.9173 481.575 54.314C481.868 53.7656 482.142 53.1532 482.397 52.4768C482.653 51.8004 482.808 51.4165 482.863 51.3251C482.954 51.2702 483.11 51.2428 483.329 51.2428H483.685C483.795 51.4073 483.849 51.5079 483.849 51.5444C483.849 51.581 483.667 52.1203 483.301 53.1623C482.936 54.2043 482.534 55.3012 482.096 56.4529C481.658 57.6046 481.42 58.281 481.384 58.4821C481.347 58.5735 481.311 58.6283 481.274 58.6466C481.238 58.6649 481.091 58.6923 480.836 58.7289C480.58 58.7654 480.187 58.7746 479.658 58.7563C479.457 58.7563 478.763 58.7563 477.575 58.7563C476.388 58.7563 475.256 58.7472 474.178 58.7289H469.301C467.767 58.7289 467 58.6375 467 58.4547C467 58.3267 467.018 58.1987 467.055 58.0708C467.146 57.7234 467.237 57.5315 467.329 57.4949C467.402 57.4766 467.539 57.4675 467.74 57.4675H467.904C468.397 57.4675 468.945 57.4401 469.548 57.3852C469.804 57.3304 469.977 57.2207 470.069 57.0562C470.123 56.983 470.781 54.442 472.041 49.433C473.301 44.424 473.932 41.7824 473.932 41.5082C473.932 41.3802 473.411 41.2979 472.37 41.2614Z" fill="#252323" stroke="#252323" stroke-width="0.16"/>
<path d="M451.959 92.0433C451.703 92.0433 451.484 91.9702 451.301 91.824C451.119 91.6777 451.018 91.4766 451 91.2207C451 91.0379 451.667 88.2774 453 82.9394C454.333 77.6013 455.037 74.8775 455.11 74.7678C455.347 74.2559 455.767 74 456.37 74C456.589 74.0183 456.772 74.0823 456.918 74.1919C457.064 74.3016 457.155 74.4113 457.192 74.521C457.228 74.6307 457.247 74.7221 457.247 74.7952C457.247 75.0146 456.964 76.2394 456.397 78.4697C455.831 80.7 455.53 81.9522 455.493 82.2264C455.457 82.4275 455.438 82.7474 455.438 83.1862V83.4056C455.438 84.7401 456.05 85.4073 457.274 85.4073C457.438 85.4073 457.603 85.3982 457.767 85.3799C457.932 85.3616 458.087 85.3251 458.233 85.2702C458.379 85.2154 458.516 85.1514 458.644 85.0783C458.772 85.0052 458.89 84.9412 459 84.8863C459.11 84.8315 459.219 84.7401 459.329 84.6121C459.438 84.4841 459.539 84.3927 459.63 84.3379C459.722 84.2831 459.813 84.1734 459.904 84.0088C459.996 83.8443 460.069 83.7438 460.123 83.7072C460.178 83.6706 460.26 83.561 460.37 83.3781L460.562 83.1039L461.548 79.1827C462.206 76.5868 462.571 75.2065 462.644 75.042C462.881 74.5484 463.274 74.3016 463.822 74.3016C464.059 74.3016 464.251 74.3656 464.397 74.4936C464.543 74.6215 464.644 74.7312 464.699 74.8226C464.754 74.914 464.772 75.0054 464.754 75.0968L462.671 83.8169C462.653 83.9083 462.644 84.0545 462.644 84.2556C462.644 84.7127 462.708 85.0143 462.836 85.1605C462.964 85.3068 463.155 85.3891 463.411 85.4073C463.575 85.3891 463.758 85.3068 463.959 85.1605C464.343 84.7949 464.717 83.9174 465.082 82.5281C465.192 82.1625 465.283 81.9705 465.356 81.9522C465.393 81.9339 465.484 81.9248 465.63 81.9248H465.74C466.087 81.9248 466.26 82.0071 466.26 82.1716C466.26 82.2813 466.215 82.5281 466.123 82.912C466.032 83.2959 465.849 83.7895 465.575 84.3927C465.301 84.996 465.009 85.453 464.699 85.7638C464.461 86.0015 464.169 86.1934 463.822 86.3397C463.676 86.3762 463.457 86.3945 463.164 86.3945C462.781 86.3945 462.434 86.3397 462.123 86.23C461.813 86.1203 461.566 85.9832 461.384 85.8187C461.201 85.6541 461.046 85.4896 460.918 85.3251C460.79 85.1605 460.708 85.0234 460.671 84.9137C460.635 84.8041 460.617 84.7401 460.617 84.7218L460.452 84.8863C460.343 84.996 460.178 85.1331 459.959 85.2976C459.74 85.4622 459.502 85.6267 459.247 85.7912C458.991 85.9558 458.662 86.102 458.26 86.23C457.858 86.3579 457.475 86.4219 457.11 86.4219C456.251 86.4219 455.402 86.2117 454.562 85.7912L453.904 88.4511C453.521 89.9502 453.292 90.8185 453.219 91.0562C453.146 91.2938 453.037 91.4949 452.89 91.6594C452.598 91.9154 452.288 92.0433 451.959 92.0433Z" fill="#252323" stroke="#252323" stroke-width="0.16"/>
<path d="M430.065 68.1681H483.908V66.6528H430.065V68.1681Z" fill="#252323" stroke="#252323" stroke-width="0.13"/>
<path d="M314.5 71.5L314 77.5H315L317 71.5H314.5Z" fill="#252323" stroke="#252323"/>
<path d="M278.5 71.5L278 77.5H279L281 71.5H278.5Z" fill="#252323" stroke="#252323"/>
<path d="M354.5 71.5L354 77.5H355L357 71.5H354.5Z" fill="#252323" stroke="#252323"/>
</svg>
